<?xml version="1.0" encoding="UTF-8"?>
<svg version="1.1" xmlns="http://www.w3.org/2000/svg" width="630" height="396">
<path d="M0 0 C0.99 0.495 0.99 0.495 2 1 C2 1.66 2 2.32 2 3 C3.05574219 3.33644531 3.05574219 3.33644531 4.1328125 3.6796875 C7.61336768 5.28244997 10.12621362 7.5202606 12.875 10.125 C13.66390625 10.85988647 13.66390625 10.85988647 14.46875 11.60961914 C18.03494239 14.97323687 21.3681558 18.46993785 24.5 22.24609375 C26.0197392 24.08446932 26.0197392 24.08446932 28 25.8984375 C33.1824358 31.34404386 36.14402757 39.0322148 39.0625 45.890625 C39.98745539 47.97177464 41.03713582 49.93774967 42.125 51.9375 C43.69654901 55.00789436 44.48705204 57.86623112 45.1171875 61.25390625 C45.28589355 62.14537354 45.45459961 63.03684082 45.62841797 63.95532227 C45.75104004 64.63006592 45.87366211 65.30480957 46 66 C46.58789307 66.03440186 47.17578613 66.06880371 47.78149414 66.10424805 C63.41689946 67.08765482 77.94504241 68.52814533 91 78 C92.0725 78.680625 93.145 79.36125 94.25 80.0625 C96.80361118 81.86163515 98.8378986 83.76068069 101 86 C101.66 86.33 102.32 86.66 103 87 C103.33 87.99 103.66 88.98 104 90 C105.64429829 91.68873879 107.31384218 93.35305515 109 95 C122.04199453 110.29977363 126.60597487 129.9596965 125.22314453 149.74414062 C123.07626164 171.4478583 112.15985266 189.57389672 96 204 C95.34257812 204.59941406 94.68515625 205.19882812 94.0078125 205.81640625 C90.52868374 208.73373018 88.12754701 210.35870582 83.5 210.375 C82.345 210.25125 81.19 210.1275 80 210 C79.82597656 211.051875 79.82597656 211.051875 79.6484375 212.125 C78.9395283 215.26811551 77.87459037 218.0312762 76.625 221 C75.99464844 222.5159375 75.99464844 222.5159375 75.3515625 224.0625 C73.17565332 228.79164366 70.37748258 233.02634829 67.4375 237.3125 C66.83808594 238.19550781 66.23867188 239.07851563 65.62109375 239.98828125 C65.08613281 240.65214844 64.55117188 241.31601562 64 242 C63.34 242 62.68 242 62 242 C61.731875 242.639375 61.46375 243.27875 61.1875 243.9375 C60 246 60 246 57 247 C57 247.66 57 248.32 57 249 C55.20703125 250.62109375 55.20703125 250.62109375 52.8125 252.4375 C52.03519531 253.03433594 51.25789063 253.63117188 50.45703125 254.24609375 C46.20141445 257.28388698 41.67857091 259.80235365 37.0625 262.25 C36.06347656 262.79140625 35.06445312 263.3328125 34.03515625 263.890625 C29.66403322 265.48830703 26.77569791 264.70858533 22.54296875 263.01953125 C10.95540368 257.08162477 10.95540368 257.08162477 6 253 C6 252.34 6 251.68 6 251 C5.443125 250.731875 4.88625 250.46375 4.3125 250.1875 C1.77378296 248.88383449 -0.65291559 247.62991973 -3 246 C-3 245.01 -3 244.02 -3 243 C-3.65083683 243.00092179 -4.30167366 243.00184359 -4.97223282 243.00279331 C-20.8044807 243.02487233 -36.63672324 243.04142318 -52.4689827 243.05181217 C-60.12532351 243.05696967 -67.78165406 243.064002 -75.43798828 243.07543945 C-82.11081249 243.08540294 -88.78362927 243.09185741 -95.45646071 243.09408849 C-98.99004903 243.09539276 -102.52361607 243.09846074 -106.05719757 243.10573006 C-110.00070089 243.11377695 -113.94418334 243.11399006 -117.88769531 243.11352539 C-119.64743935 243.1189183 -119.64743935 243.1189183 -121.44273376 243.12442017 C-122.51682999 243.1230455 -123.59092621 243.12167084 -124.6975708 243.12025452 C-125.6304253 243.12117631 -126.5632798 243.1220981 -127.52440262 243.12304783 C-129.85784089 243.00706592 -131.80032037 242.78462747 -134 242 C-135.65497356 238.69005287 -135.10084335 235.00877 -135.0625 231.375 C-135.05798828 230.57320312 -135.05347656 229.77140625 -135.04882812 228.9453125 C-135.03703168 226.96350994 -135.01909605 224.98174567 -135 223 C-135.84481934 223.02094727 -136.68963867 223.04189453 -137.56005859 223.06347656 C-186.2003936 224.1092206 -186.2003936 224.1092206 -198.7109375 212.3984375 C-199.13632813 211.93695313 -199.56171875 211.47546875 -200 211 C-201.0828125 210.5978125 -201.0828125 210.5978125 -202.1875 210.1875 C-206.23428134 208.47885899 -209.75555477 205.96266959 -213 203 C-213 202.34 -213 201.68 -213 201 C-213.58136719 200.74992188 -214.16273438 200.49984375 -214.76171875 200.2421875 C-225.30922721 194.38859642 -232.76880187 179.21240641 -236 168 C-240.90052429 147.67888732 -239.49990799 126.60865079 -228.40234375 108.375 C-226.67247709 105.85309872 -224.86897234 103.42047238 -223 101 C-222.2884375 100.0615625 -221.576875 99.123125 -220.84375 98.15625 C-216.82115155 92.96768099 -216.82115155 92.96768099 -215 91 C-214.34 91 -213.68 91 -213 91 C-212.505 89.515 -212.505 89.515 -212 88 C-210.0390625 86.4296875 -210.0390625 86.4296875 -207.625 84.875 C-206.83351562 84.35679687 -206.04203125 83.83859375 -205.2265625 83.3046875 C-203 82 -203 82 -200 81 C-199.67 80.34 -199.34 79.68 -199 79 C-196.890625 78 -196.890625 78 -194.25 77 C-193.38890625 76.67 -192.5278125 76.34 -191.640625 76 C-190.33351563 75.505 -190.33351563 75.505 -189 75 C-188.21367187 74.65195313 -187.42734375 74.30390625 -186.6171875 73.9453125 C-177.76932817 70.74951853 -167.30244984 70.65188337 -158 71 C-157.9175 69.7625 -157.835 68.525 -157.75 67.25 C-155.9573764 52.05987374 -147.15933965 34.45388154 -137 23 C-136.34 23 -135.68 23 -135 23 C-134.7525 22.443125 -134.505 21.88625 -134.25 21.3125 C-132.76129471 18.55839521 -131.11590028 16.30825486 -129 14 C-128.01 14 -127.02 14 -126 14 C-125.7628125 13.41992188 -125.525625 12.83984375 -125.28125 12.2421875 C-118.62551861 0.59465757 -101.83506873 -5.22019955 -89.80371094 -9.37451172 C-88.32323712 -9.8879083 -86.85162268 -10.426785 -85.3828125 -10.97265625 C-56.98489256 -20.74979478 -25.48510155 -14.10602054 0 0 Z " fill="#1E67C3" transform="translate(386,86)"/>
<path d="M0 0 C32.01 0 64.02 0 97 0 C97.3125 25.75 97.3125 25.75 97.38793945 33.86621094 C97.42022416 35.98895029 97.45359713 38.1116735 97.48828125 40.234375 C97.49452515 41.33668457 97.50076904 42.43899414 97.50720215 43.57470703 C97.53711243 45.15759521 97.53711243 45.15759521 97.56762695 46.77246094 C97.57873001 47.68735291 97.58983307 48.60224487 97.60127258 49.54486084 C98.08869669 52.54614435 98.7982094 53.90286379 101 56 C103.38843345 56.61562739 103.38843345 56.61562739 106.11401367 56.54589844 C107.15486618 56.56561707 108.19571869 56.58533569 109.26811218 56.60565186 C110.95104118 56.60749481 110.95104118 56.60749481 112.66796875 56.609375 C113.81791824 56.62591125 114.96786774 56.64244751 116.15266418 56.65948486 C119.83099623 56.7081282 123.50891438 56.72937287 127.1875 56.75 C129.67905747 56.77814588 132.17059551 56.80807134 134.66210938 56.83984375 C140.77466403 56.91389158 146.8871015 56.96543823 153 57 C152.98259766 58.17973389 152.98259766 58.17973389 152.96484375 59.38330078 C152.93527431 62.96489933 152.96704098 66.54345352 153 70.125 C152.98066406 71.3625 152.96132813 72.6 152.94140625 73.875 C152.87840972 80.42762493 152.87840972 80.42762493 155.671875 86.10058594 C157.7112301 87.65022748 159.71560051 88.84882583 162 90 C162.845625 90.54527344 163.69125 91.09054688 164.5625 91.65234375 C167.66896733 93.36986174 170.8216658 94.98351987 174 96.5625 C174.60328125 96.86607422 175.2065625 97.16964844 175.828125 97.48242188 C183.39903843 101.25964934 190.65484833 103.55146271 199.0703125 104.46484375 C199.78856201 104.54412109 200.50681152 104.62339844 201.24682617 104.70507812 C202.6935978 104.8585749 204.14177018 104.99945598 205.59106445 105.12695312 C207.62109375 105.33984375 207.62109375 105.33984375 211 106 C219.88605352 119.32908028 213.51427245 147.22864934 211 162 C208.36 162 205.72 162 203 162 C202.88398438 162.70125 202.76796875 163.4025 202.6484375 164.125 C201.9395283 167.26811551 200.87459037 170.0312762 199.625 173 C198.99464844 174.5159375 198.99464844 174.5159375 198.3515625 176.0625 C196.17565332 180.79164366 193.37748258 185.02634829 190.4375 189.3125 C189.83808594 190.19550781 189.23867188 191.07851563 188.62109375 191.98828125 C188.08613281 192.65214844 187.55117188 193.31601562 187 194 C186.34 194 185.68 194 185 194 C184.731875 194.639375 184.46375 195.27875 184.1875 195.9375 C183 198 183 198 180 199 C180 199.66 180 200.32 180 201 C178.20703125 202.62109375 178.20703125 202.62109375 175.8125 204.4375 C175.03519531 205.03433594 174.25789062 205.63117188 173.45703125 206.24609375 C169.20141445 209.28388698 164.67857091 211.80235365 160.0625 214.25 C158.56396484 215.06210937 158.56396484 215.06210937 157.03515625 215.890625 C152.66403322 217.48830703 149.77569791 216.70858533 145.54296875 215.01953125 C133.95540368 209.08162477 133.95540368 209.08162477 129 205 C129 204.34 129 203.68 129 203 C128.443125 202.731875 127.88625 202.46375 127.3125 202.1875 C124.77378296 200.88383449 122.34708441 199.62991973 120 198 C120 197.01 120 196.02 120 195 C116.37 195 112.74 195 109 195 C108.54625 194.030625 108.0925 193.06125 107.625 192.0625 C106.34213779 188.92920418 106.34213779 188.92920418 104 188 C104 187.01 104 186.02 104 185 C69.68 185 35.36 185 0 185 C0 123.95 0 62.9 0 0 Z " fill="#F8FCFC" transform="translate(263,134)"/>
<path d="M0 0 C2.9398522 0.37462804 5.02897746 1.48331737 7.46875 3.109375 C8.11634277 3.5321875 8.76393555 3.955 9.43115234 4.390625 C10.11387207 4.83921875 10.7965918 5.2878125 11.5 5.75 C20.20803029 11.31681346 28.82697382 15.80079565 39.13037109 17.49609375 C42.54771761 18.0961791 45.92921622 18.82094152 49.3203125 19.5546875 C50.57344238 19.82522949 51.82657227 20.09577148 53.11767578 20.37451172 C54.06884277 20.58092285 55.02000977 20.78733398 56 21 C56.10045875 26.11875981 56.17220033 31.2369199 56.21972656 36.35644531 C56.23958198 38.0902712 56.26667573 39.82403255 56.30175781 41.55761719 C56.70852094 62.2068277 52.26931087 80.06309971 40.4375 97.3125 C39.53837891 98.63701172 39.53837891 98.63701172 38.62109375 99.98828125 C37.81865234 100.98408203 37.81865234 100.98408203 37 102 C36.34 102 35.68 102 35 102 C34.731875 102.639375 34.46375 103.27875 34.1875 103.9375 C33 106 33 106 30 107 C30 107.66 30 108.32 30 109 C28.20703125 110.62109375 28.20703125 110.62109375 25.8125 112.4375 C25.03519531 113.03433594 24.25789063 113.63117188 23.45703125 114.24609375 C19.20141445 117.28388698 14.67857091 119.80235365 10.0625 122.25 C9.06347656 122.79140625 8.06445312 123.3328125 7.03515625 123.890625 C2.66403322 125.48830703 -0.22430209 124.70858533 -4.45703125 123.01953125 C-16.04459632 117.08162477 -16.04459632 117.08162477 -21 113 C-21 112.34 -21 111.68 -21 111 C-21.556875 110.731875 -22.11375 110.46375 -22.6875 110.1875 C-25.22621704 108.88383449 -27.65291559 107.62991973 -30 106 C-30 105.01 -30 104.02 -30 103 C-31.485 102.505 -31.485 102.505 -33 102 C-49.95842242 79.93789998 -55.48026714 51.40538212 -53 24 C-52.505 22.515 -52.505 22.515 -52 21 C-49.30624581 20.15519539 -46.75310774 19.50505575 -44 18.9375 C-43.21761963 18.76250977 -42.43523926 18.58751953 -41.62915039 18.40722656 C-38.57187465 17.72832729 -35.52493599 17.08549186 -32.43359375 16.58203125 C-21.77646732 14.80931942 -7.59993997 7.59993997 0 0 Z " fill="#F8FBFB" transform="translate(413,226)"/>
<path d="M0 0 C2.9398522 0.37462804 5.02897746 1.48331737 7.46875 3.109375 C8.11634277 3.5321875 8.76393555 3.955 9.43115234 4.390625 C10.11387207 4.83921875 10.7965918 5.2878125 11.5 5.75 C20.20803029 11.31681346 28.82697382 15.80079565 39.13037109 17.49609375 C42.54771761 18.0961791 45.92921622 18.82094152 49.3203125 19.5546875 C50.57344238 19.82522949 51.82657227 20.09577148 53.11767578 20.37451172 C54.06884277 20.58092285 55.02000977 20.78733398 56 21 C56.10045875 26.11875981 56.17220033 31.2369199 56.21972656 36.35644531 C56.23958198 38.0902712 56.26667573 39.82403255 56.30175781 41.55761719 C56.70852094 62.2068277 52.26931087 80.06309971 40.4375 97.3125 C39.53837891 98.63701172 39.53837891 98.63701172 38.62109375 99.98828125 C37.81865234 100.98408203 37.81865234 100.98408203 37 102 C36.34 102 35.68 102 35 102 C34.731875 102.639375 34.46375 103.27875 34.1875 103.9375 C33 106 33 106 30 107 C30 107.66 30 108.32 30 109 C28.20703125 110.62109375 28.20703125 110.62109375 25.8125 112.4375 C25.03519531 113.03433594 24.25789063 113.63117188 23.45703125 114.24609375 C19.20141445 117.28388698 14.67857091 119.80235365 10.0625 122.25 C9.06347656 122.79140625 8.06445312 123.3328125 7.03515625 123.890625 C2.66403322 125.48830703 -0.22430209 124.70858533 -4.45703125 123.01953125 C-16.04459632 117.08162477 -16.04459632 117.08162477 -21 113 C-21 112.34 -21 111.68 -21 111 C-21.556875 110.731875 -22.11375 110.46375 -22.6875 110.1875 C-25.22621704 108.88383449 -27.65291559 107.62991973 -30 106 C-30 105.01 -30 104.02 -30 103 C-31.485 102.505 -31.485 102.505 -33 102 C-49.95842242 79.93789998 -55.48026714 51.40538212 -53 24 C-52.505 22.515 -52.505 22.515 -52 21 C-49.30624581 20.15519539 -46.75310774 19.50505575 -44 18.9375 C-43.21761963 18.76250977 -42.43523926 18.58751953 -41.62915039 18.40722656 C-38.57187465 17.72832729 -35.52493599 17.08549186 -32.43359375 16.58203125 C-21.77646732 14.80931942 -7.59993997 7.59993997 0 0 Z M-4.84765625 14.515625 C-16.58700619 22.6117284 -30.38688955 25.45932789 -44 29 C-44.37245707 43.02921641 -44.34743564 57.83131504 -39 71 C-38.72414063 71.85464844 -38.44828125 72.70929688 -38.1640625 73.58984375 C-35.89606333 80.50045659 -32.56897795 90.54294171 -25.828125 94.16796875 C-25.22484375 94.44253906 -24.6215625 94.71710938 -24 95 C-23.7525 95.7425 -23.505 96.485 -23.25 97.25 C-21.31256639 101.51235393 -17.81762864 103.44599975 -14 106 C-13.27425781 106.49242187 -12.54851562 106.98484375 -11.80078125 107.4921875 C-7.75172602 110.29061008 -7.75172602 110.29061008 -3 111 C-3 111.66 -3 112.32 -3 113 C-0.06699268 114.46650366 1.72037344 114.36440295 5 114 C7.83252233 112.564338 10.38283606 110.7901603 13 109 C13.78375 108.5565625 14.5675 108.113125 15.375 107.65625 C27.30118203 100.13139705 38.526961 87.25416464 42.71484375 73.68359375 C43.02866864 72.23377465 43.31416052 70.77751804 43.5703125 69.31640625 C44.22924236 65.7641753 45.29888728 62.33487594 46.31640625 58.87109375 C47.97439047 51.90756001 48.13356682 45.11761511 48.0625 38 C48.05798828 37.12988281 48.05347656 36.25976562 48.04882812 35.36328125 C48.0371736 33.24215707 48.01924357 31.1210689 48 29 C46.97261719 28.75765625 45.94523437 28.5153125 44.88671875 28.265625 C29.78969224 24.64541034 16.00527218 19.67018145 3 11 C-0.69152344 11 -1.95783391 12.41178706 -4.84765625 14.515625 Z " fill="#2769BA" transform="translate(413,226)"/>
<path d="M0 0 C4.45078029 2.07115518 6.4697295 5.110514 8.9375 9.25 C10.26589841 13.93846498 10.26268994 18.16455924 10 23 C10.61875 23.103125 11.2375 23.20625 11.875 23.3125 C14 24 14 24 16 27 C16.22705078 30.00268555 16.22705078 30.00268555 16.1953125 33.63671875 C16.18886719 34.93544922 16.18242187 36.23417969 16.17578125 37.57226562 C16.1590706 38.94401307 16.14214071 40.31575786 16.125 41.6875 C16.11496674 43.07095718 16.10584149 44.45442127 16.09765625 45.83789062 C16.07404967 49.22543452 16.04112037 52.61263072 16 56 C15.34 56 14.68 56 14 56 C13.67 56.99 13.34 57.98 13 59 C7.35834639 59.07410727 1.71697553 59.12858167 -3.92504883 59.16479492 C-5.84469538 59.1798898 -7.7643074 59.20036773 -9.68383789 59.22631836 C-12.44165564 59.26267109 -15.1990178 59.27971912 -17.95703125 59.29296875 C-18.81649857 59.30845261 -19.67596588 59.32393646 -20.56147766 59.33988953 C-21.36208115 59.34011612 -22.16268463 59.34034271 -22.98754883 59.34057617 C-23.6914827 59.34723801 -24.39541656 59.35389984 -25.12068176 59.36076355 C-27.57649101 58.88933384 -28.43804757 57.90964651 -30 56 C-32.22634301 51.54731399 -31.27477227 45.51451364 -31.3125 40.625 C-31.34150391 39.37976563 -31.37050781 38.13453125 -31.40039062 36.8515625 C-31.40876953 35.6553125 -31.41714844 34.4590625 -31.42578125 33.2265625 C-31.44036377 32.12908691 -31.45494629 31.03161133 -31.4699707 29.90087891 C-30.89120713 26.32847956 -29.87230996 25.14117061 -27 23 C-26.01 23 -25.02 23 -24 23 C-24.02320313 22.34773438 -24.04640625 21.69546875 -24.0703125 21.0234375 C-24.17583753 15.91301097 -24.01926302 11.79574967 -22 7 C-21.34 7 -20.68 7 -20 7 C-19.7525 6.401875 -19.505 5.80375 -19.25 5.1875 C-15.14724833 -1.99231542 -7.29620599 -1.01382361 0 0 Z " fill="#1E66C0" transform="translate(422,256)"/>
<path d="M0 0 C0.95614197 -0.00014603 1.91228394 -0.00029205 2.8973999 -0.0004425 C6.06817874 0.000256 9.23889935 0.00804549 12.40966797 0.01586914 C14.60399341 0.01773354 16.79831926 0.01915734 18.99264526 0.02015686 C24.77619571 0.02398029 30.55972117 0.03380911 36.34326172 0.04486084 C42.24169578 0.0550787 48.14013387 0.05965529 54.03857422 0.06469727 C65.6180123 0.07543151 77.19743181 0.09250586 88.77685547 0.11352539 C88.77685547 0.44352539 88.77685547 0.77352539 88.77685547 1.11352539 C56.76685547 1.11352539 24.75685547 1.11352539 -8.22314453 1.11352539 C-8.22314453 62.16352539 -8.22314453 123.21352539 -8.22314453 186.11352539 C26.09685547 186.11352539 60.41685547 186.11352539 95.77685547 186.11352539 C95.77685547 187.10352539 95.77685547 188.09352539 95.77685547 189.11352539 C96.76685547 189.44352539 97.75685547 189.77352539 98.77685547 190.11352539 C99.96435547 193.17602539 99.96435547 193.17602539 100.77685547 196.11352539 C85.72142076 196.13688328 70.66598745 196.15451879 55.61053848 196.16533756 C48.62007288 196.17049437 41.62961853 196.17752537 34.63916016 196.18896484 C27.89593094 196.19999449 21.15271584 196.20580607 14.40947723 196.20840263 C11.8338172 196.21025362 9.25815782 196.21386802 6.68250275 196.21925545 C3.08145247 196.22648967 -0.51954912 196.22751531 -4.12060547 196.22705078 C-5.19091003 196.23064606 -6.2612146 196.23424133 -7.36395264 196.23794556 C-8.34549316 196.23657089 -9.32703369 196.23519623 -10.33831787 196.23377991 C-11.19005459 196.2347017 -12.04179131 196.23562349 -12.91933823 196.23657322 C-15.18265258 196.11568809 -17.08437097 195.86509602 -19.22314453 195.11352539 C-20.8781181 191.80357826 -20.32398788 188.12229539 -20.28564453 184.48852539 C-20.28113281 183.68672852 -20.27662109 182.88493164 -20.27197266 182.05883789 C-20.26017621 180.07703533 -20.24224058 178.09527106 -20.22314453 176.11352539 C-21.08367432 176.13447266 -21.9442041 176.15541992 -22.83081055 176.17700195 C-56.03032961 176.87944909 -56.03032961 176.87944909 -66.22314453 172.11352539 C-66.55314453 171.45352539 -66.88314453 170.79352539 -67.22314453 170.11352539 C-65.90314453 170.11352539 -64.58314453 170.11352539 -63.22314453 170.11352539 C-63.22314453 170.77352539 -63.22314453 171.43352539 -63.22314453 172.11352539 C-62.54767578 172.10192383 -61.87220703 172.09032227 -61.17626953 172.07836914 C-60.28423828 172.0693457 -59.39220703 172.06032227 -58.47314453 172.05102539 C-57.59142578 172.03942383 -56.70970703 172.02782227 -55.80126953 172.01586914 C-53.22314453 172.11352539 -53.22314453 172.11352539 -51.48779297 172.60205078 C-48.44792301 173.28861046 -45.52553767 173.31682013 -42.41064453 173.39477539 C-41.43454224 173.42238953 -41.43454224 173.42238953 -40.4387207 173.45056152 C-38.36695004 173.50906998 -36.2950997 173.56199141 -34.22314453 173.61352539 C-31.49381271 173.68140975 -28.76472682 173.75506909 -26.03564453 173.83227539 C-24.82521484 173.86256836 -23.61478516 173.89286133 -22.36767578 173.92407227 C-19.80768841 174.07830753 -17.66074564 174.3665186 -15.22314453 175.11352539 C-15.22314453 175.77352539 -15.22314453 176.43352539 -15.22314453 177.11352539 C-14.56314453 177.11352539 -13.90314453 177.11352539 -13.22314453 177.11352539 C-13.22314453 175.79352539 -13.22314453 174.47352539 -13.22314453 173.11352539 C-12.56314453 173.11352539 -11.90314453 173.11352539 -11.22314453 173.11352539 C-11.23225782 171.87499534 -11.23225782 171.87499534 -11.24155521 170.61144447 C-11.38919905 150.4960422 -11.53092409 130.38060575 -11.66610813 110.26511574 C-11.73162466 100.53731666 -11.79912478 90.80953898 -11.87133789 81.08178711 C-11.93429315 72.60046573 -11.9934825 64.11912774 -12.04820007 55.63774908 C-12.07728727 51.14932927 -12.10822601 46.66093987 -12.14367867 42.17256546 C-12.17703315 37.94227722 -12.20532697 33.71198441 -12.22985077 29.48163605 C-12.23969124 27.93454332 -12.25133182 26.38746075 -12.26497459 24.84039688 C-12.42749327 6.13268122 -12.42749327 6.13268122 -11.22314453 1.11352539 C-7.774363 -0.61086538 -3.79503385 -0.01500711 0 0 Z " fill="#3C78C1" transform="translate(271.22314453125,132.886474609375)"/>
<path d="M0 0 C1.03472946 -0.00563965 2.06945892 -0.0112793 3.13554382 -0.01708984 C4.2701857 -0.01304138 5.40482758 -0.00899292 6.57385254 -0.00482178 C8.36681511 -0.01007874 8.36681511 -0.01007874 10.19599915 -0.01544189 C13.47489847 -0.02274296 16.7536367 -0.02102189 20.03253365 -0.01468372 C23.46244778 -0.0096235 26.89235107 -0.01431524 30.32226562 -0.01745605 C36.08241715 -0.02109564 41.84251739 -0.01629683 47.60266113 -0.0067749 C54.26407845 0.00410966 60.92537335 0.00058408 67.5867877 -0.01042771 C73.30405587 -0.01950083 79.02128716 -0.02078575 84.7385602 -0.01555037 C88.15415231 -0.0124308 91.56968685 -0.01202096 94.98527527 -0.01862335 C98.79222979 -0.02368461 102.598947 -0.0159837 106.40588379 -0.00482178 C108.1078466 -0.01089447 108.1078466 -0.01089447 109.8441925 -0.01708984 C111.3962867 -0.00863037 111.3962867 -0.00863037 112.97973633 0 C113.88011879 0.00075405 114.78050125 0.0015081 115.70816803 0.002285 C117.98986816 0.25396729 117.98986816 0.25396729 120.98986816 2.25396729 C121.30236816 4.75396729 121.30236816 4.75396729 120.98986816 7.25396729 C118.4436617 9.80017375 117.54817214 9.50503227 114.01733398 9.50793457 C112.96570572 9.51357422 111.91407745 9.51921387 110.83058167 9.52502441 C109.67207199 9.52097595 108.51356232 9.51692749 107.31994629 9.51275635 C105.49553261 9.51801331 105.49553261 9.51801331 103.63426208 9.52337646 C100.29335687 9.53068551 96.95269841 9.52895147 93.61180687 9.52261829 C90.120026 9.51756438 86.62825588 9.52224805 83.13647461 9.52539062 C77.27199402 9.52903205 71.40756377 9.52422656 65.54309082 9.51470947 C58.75727508 9.50382456 51.97157952 9.50735001 45.1857667 9.51836228 C39.36577527 9.52743015 33.54582008 9.5287229 27.72582388 9.52348495 C24.24709191 9.52036247 20.76841648 9.51996345 17.28968811 9.52655792 C13.41300768 9.53339308 9.5364625 9.52392679 5.65979004 9.51275635 C4.50128036 9.51680481 3.34277069 9.52085327 2.14915466 9.52502441 C1.0975264 9.51938477 0.04589813 9.51374512 -1.03759766 9.50793457 C-1.95494942 9.50718052 -2.87230118 9.50642647 -3.81745148 9.50564957 C-6.01013184 9.25396729 -6.01013184 9.25396729 -8.01013184 7.25396729 C-8.32263184 4.75396729 -8.32263184 4.75396729 -8.01013184 2.25396729 C-4.73288826 0.06913824 -3.79669042 0.00317965 0 0 Z " fill="#1C65C1" transform="translate(281.0101318359375,208.74603271484375)"/>
<path d="M0 0 C0.89983109 0.00719055 1.79966217 0.0143811 2.72676086 0.02178955 C3.67314926 0.0214975 4.61953766 0.02120544 5.59460449 0.02090454 C8.73298712 0.02230153 11.87113439 0.0378801 15.00947571 0.05352783 C17.18137991 0.05725665 19.35328578 0.06010424 21.52519226 0.06210327 C27.24959433 0.06975006 32.97389537 0.08940752 38.69825745 0.11151123 C44.53635796 0.13194716 50.37447476 0.14110016 56.21260071 0.15118408 C67.67358267 0.17265243 79.13448955 0.20680096 90.59541321 0.24884033 C87.78343863 3.06081491 84.75530076 2.9478659 80.97041321 3.37384033 C80.26400696 3.46020752 79.55760071 3.54657471 78.82978821 3.63555908 C77.0859118 3.84765216 75.3407648 4.04925025 73.59541321 4.24884033 C73.26541321 6.22884033 72.93541321 8.20884033 72.59541321 10.24884033 C62.47733262 10.31829219 52.35930856 10.37162707 42.24103832 10.40427685 C37.54291565 10.41994561 32.84495582 10.44120588 28.14692688 10.47515869 C23.61468208 10.5077091 19.08259412 10.52568423 14.55024147 10.53347206 C12.81943098 10.53902335 11.08862925 10.54986346 9.35788536 10.5660305 C6.93711545 10.5877477 4.51699698 10.5908097 2.09614563 10.5894165 C1.37757385 10.60020233 0.65900208 10.61098816 -0.0813446 10.62210083 C-2.98440062 10.60397292 -4.93324273 10.57796981 -7.35385132 8.88771057 C-8.84216728 6.56633017 -8.75047385 4.94675938 -8.40458679 2.24884033 C-5.7142853 -0.44146116 -3.65520953 0.01227146 0 0 Z " fill="#1E65BF" transform="translate(281.4045867919922,236.75115966796875)"/>
<path d="M0 0 C17.1875 17.1875 17.1875 17.1875 19.17578125 19.17773438 C20.29552588 20.29628014 21.41743046 21.41267492 22.54296875 22.52539062 C25.25447608 25.20906724 27.6174461 28.02180762 30 31 C30.825 31.825 31.65 32.65 32.5 33.5 C35 36 35 36 39 41 C26.13 41 13.26 41 0 41 C0 27.47 0 13.94 0 0 Z " fill="#F9FBFB" transform="translate(370,140)"/>
<path d="M0 0 C2.54352483 -0.28660203 4.84286964 -0.37857678 7.38720703 -0.34057617 C8.52881287 -0.34123329 8.52881287 -0.34123329 9.69348145 -0.34190369 C12.21518393 -0.33980959 14.73622583 -0.31645001 17.2578125 -0.29296875 C19.00372962 -0.28737499 20.74965144 -0.28310385 22.49557495 -0.28010559 C27.0955704 -0.26863948 31.69528263 -0.23915727 36.29516602 -0.20599365 C40.98710295 -0.17533071 45.67908555 -0.16160835 50.37109375 -0.14648438 C59.58085375 -0.11428913 68.79040334 -0.06307159 78 0 C78 3.3 78 6.6 78 10 C67.86462398 10.04627451 57.72927296 10.08184427 47.59381294 10.10362434 C42.88786217 10.11407597 38.18198349 10.12826022 33.47607422 10.15087891 C28.93735924 10.17255826 24.39871376 10.18455823 19.85995102 10.18975449 C18.12553691 10.19345909 16.39112674 10.20069294 14.6567421 10.21146011 C12.23347914 10.22590995 9.81050591 10.2279807 7.38720703 10.22705078 C6.30395645 10.23783661 6.30395645 10.23783661 5.19882202 10.24884033 C0.22810432 10.22810432 0.22810432 10.22810432 -2 8 C-2.38286803 4.26703674 -2.14915785 3.22373677 0 0 Z " fill="#1E64BB" transform="translate(275,265)"/>
<path d="M0 0 C3.73751925 1.78338482 7.31996312 3.50974085 10.6875 5.9375 C14.99301414 8.61829182 19.51633632 10.21443687 24.26953125 11.94921875 C27 13 27 13 28 14 C32.35007231 15.14475587 36.61617899 15.98420108 41.0859375 16.46875 C42.15992798 16.58682007 42.15992798 16.58682007 43.25561523 16.70727539 C44.6991744 16.85959455 46.14409012 16.99960813 47.59008789 17.12670898 C49.62109375 17.33984375 49.62109375 17.33984375 53 18 C61.88605352 31.32908028 55.51427245 59.22864934 53 74 C50.36 74 47.72 74 45 74 C45.88169336 67.45027787 45.88169336 67.45027787 46.52232361 65.01202393 C47.35564477 61.50198629 47.2423353 57.88932721 47.31640625 54.296875 C47.33718735 53.45908508 47.35796844 52.62129517 47.37937927 51.75811768 C47.4446255 49.08882644 47.50364358 46.41943902 47.5625 43.75 C47.60570894 41.93749016 47.64932399 40.12498995 47.69335938 38.3125 C47.80028129 33.87509791 47.90161866 29.43759932 48 25 C46.89769043 25.01208496 45.79538086 25.02416992 44.65966797 25.03662109 C41.37902267 25.00379276 39.1867551 24.66620291 36.125 23.625 C32.96199093 22.59606934 29.89263026 21.74064048 26.625 21.125 C14.55536051 18.46630319 4.93990859 11.9932417 -5 5 C-3 4 -3 4 0 4 C0 2.68 0 1.36 0 0 Z " fill="#ECF5FA" transform="translate(421,222)"/>
<path d="M0 0 C1.18571594 -0.00043808 1.18571594 -0.00043808 2.39538574 -0.00088501 C5.00890062 0.00050864 7.62213061 0.0160714 10.2355957 0.03173828 C12.04734644 0.03546829 13.85909919 0.03831532 15.67085266 0.04031372 C20.44008958 0.04795114 25.20920475 0.06760058 29.97839355 0.08972168 C34.84470981 0.11017775 39.71104573 0.11931493 44.57739258 0.12939453 C54.12627421 0.15084636 63.67506546 0.18498364 73.22387695 0.22705078 C74.70219955 3.18369597 74.28420478 5.96934815 74.22387695 9.22705078 C63.28891224 9.25017376 52.3539533 9.26796563 41.41896915 9.27886295 C36.34196678 9.28409188 31.26498106 9.2911897 26.18798828 9.30249023 C21.29267143 9.31331877 16.39737067 9.31932754 11.50204277 9.32192802 C9.63004745 9.32378234 7.75805305 9.32740306 5.88606453 9.33278084 C3.27346996 9.33999083 0.66094269 9.34104174 -1.95166016 9.34057617 C-2.73352692 9.34417145 -3.51539368 9.34776672 -4.32095337 9.35147095 C-9.66207089 9.34110294 -9.66207089 9.34110294 -10.77612305 8.22705078 C-11.02612305 5.28955078 -11.02612305 5.28955078 -10.77612305 2.22705078 C-7.07490874 -0.24042543 -4.27887245 -0.04120877 0 0 Z " fill="#1F66C2" transform="translate(283.776123046875,293.77294921875)"/>
<path d="M0 0 C0.6505687 -0.00335861 1.30113739 -0.00671722 1.97142029 -0.01017761 C4.12614846 -0.01969209 6.28079899 -0.02163083 8.43554688 -0.02270508 C9.93005404 -0.02591684 11.42456089 -0.02928085 12.91906738 -0.03279114 C16.05298594 -0.03878331 19.1868769 -0.0406309 22.32080078 -0.04003906 C26.3427774 -0.03993733 30.36457793 -0.05360095 34.38651276 -0.07081127 C37.47309182 -0.08191089 40.559628 -0.08395892 43.64622498 -0.08342934 C45.12943632 -0.0846121 46.61264868 -0.08905037 48.09584045 -0.0967617 C50.1668851 -0.10652263 52.23754333 -0.10369953 54.30859375 -0.09765625 C55.48836792 -0.09908127 56.66814209 -0.10050629 57.88366699 -0.10197449 C60.65429688 0.14526367 60.65429688 0.14526367 62.65429688 2.14526367 C62.98763021 7.47859701 62.98763021 7.47859701 61.65429688 10.14526367 C52.69237292 10.19154517 43.73048993 10.22711148 34.76847267 10.24888802 C30.60732435 10.25933813 26.44625761 10.27351959 22.28515625 10.29614258 C18.27163259 10.31782738 14.25818754 10.32982304 10.24460983 10.33501816 C8.71115251 10.33872179 7.17769964 10.34595378 5.64427567 10.35672379 C3.50119886 10.37118096 1.35844952 10.37324408 -0.78466797 10.37231445 C-2.61667252 10.37897629 -2.61667252 10.37897629 -4.48568726 10.38577271 C-7.34570312 10.14526367 -7.34570312 10.14526367 -9.34570312 8.14526367 C-9.09570312 4.58276367 -9.09570312 4.58276367 -8.34570312 1.14526367 C-5.52308369 -0.26604605 -3.15667301 0.01019907 0 0 Z " fill="#2B6BBB" transform="translate(282.345703125,179.854736328125)"/>
<path d="M0 0 C1.22133636 0.00444122 2.44267273 0.00888245 3.70101929 0.01345825 C4.37430771 0.0131662 5.04759613 0.01287415 5.74128723 0.01257324 C7.97067067 0.01396856 10.19972145 0.02953887 12.42904663 0.04519653 C13.97318336 0.04892595 15.51732246 0.05177326 17.0614624 0.05377197 C21.12873856 0.06141404 25.19587224 0.08106736 29.26309204 0.10317993 C33.41214063 0.12362607 37.5612122 0.13277105 41.71029663 0.14285278 C49.85359124 0.16431279 57.99676997 0.19845555 66.13998413 0.24050903 C67.38998413 6.86550903 67.38998413 6.86550903 65.13998413 10.24050903 C62.37608337 10.62145996 62.37608337 10.62145996 58.81015015 10.62869263 C58.16118774 10.63394958 57.51222534 10.63920654 56.84359741 10.6446228 C54.69345183 10.65785115 52.54404379 10.64907446 50.39389038 10.63894653 C48.90177773 10.64096672 47.40966603 10.64387769 45.91755676 10.64764404 C42.78774633 10.65207141 39.6581925 10.64562427 36.52841187 10.63162231 C32.51536622 10.61454466 28.50292308 10.6243595 24.48989964 10.64233971 C21.40753133 10.65317923 18.32530588 10.64973024 15.24293327 10.64195633 C13.763345 10.639954 12.28374378 10.64241476 10.80417061 10.64939499 C8.73550189 10.65701096 6.66780868 10.64540429 4.59921265 10.62869263 C2.83288231 10.62511246 2.83288231 10.62511246 1.03086853 10.62145996 C-1.86001587 10.24050903 -1.86001587 10.24050903 -3.7441864 8.87640381 C-5.32051869 6.56537527 -5.21037681 4.97332435 -4.86001587 2.24050903 C-2.86001587 0.24050903 -2.86001587 0.24050903 0 0 Z " fill="#1D66C2" transform="translate(277.8600158691406,151.75949096679688)"/>
<path d="M0 0 C0.33 0 0.66 0 1 0 C1.33 2.64 1.66 5.28 2 8 C5.465 7.505 5.465 7.505 9 7 C9 6.34 9 5.68 9 5 C10.65 5 12.3 5 14 5 C14 5.99 14 6.98 14 8 C13.01 7.67 12.02 7.34 11 7 C10.67 20.2 10.34 33.4 10 47 C23.2 47 36.4 47 50 47 C50.495 46.01 50.495 46.01 51 45 C51 45.99 51 46.98 51 48 C49.26746514 49.73253486 47.03888401 49.12821273 44.72994995 49.13894653 C43.62225754 49.13591019 43.62225754 49.13591019 42.4921875 49.1328125 C41.35392014 49.13424759 41.35392014 49.13424759 40.19265747 49.13571167 C38.58026039 49.1363939 36.96786059 49.13453665 35.35546875 49.13037109 C32.9061856 49.12506753 30.45708957 49.1302915 28.0078125 49.13671875 C26.44010377 49.13605711 24.87239515 49.13477417 23.3046875 49.1328125 C22.57837128 49.13483673 21.85205505 49.13686096 21.10372925 49.13894653 C16.62502784 49.11869087 12.40491246 48.72657606 8 48 C8 48.99 8 49.98 8 51 C6.515 51.495 6.515 51.495 5 52 C5 52.66 5 53.32 5 54 C5.63671127 54.01030746 6.27342255 54.02061493 6.9294281 54.03123474 C13.53126798 54.13906331 20.13296478 54.25367961 26.73461914 54.37231445 C29.20138569 54.41573943 31.66818378 54.45740872 34.13500977 54.49731445 C37.67213466 54.55483445 41.20909966 54.61858075 44.74609375 54.68359375 C46.41169594 54.70866249 46.41169594 54.70866249 48.11094666 54.73423767 C49.64242088 54.7641555 49.64242088 54.7641555 51.20483398 54.79467773 C52.10862289 54.81022202 53.0124118 54.8257663 53.94358826 54.84178162 C56 55 56 55 57 56 C57.08758003 57.99964982 57.10696576 60.0023611 57.09765625 62.00390625 C57.09443359 63.21884766 57.09121094 64.43378906 57.08789062 65.68554688 C57.07532227 67.60463867 57.07532227 67.60463867 57.0625 69.5625 C57.05798828 70.84576172 57.05347656 72.12902344 57.04882812 73.45117188 C57.03699545 76.63416022 57.02051068 79.81705762 57 83 C57.66 83 58.32 83 59 83 C59 83.66 59 84.32 59 85 C58.01 84.67 57.02 84.34 56 84 C56 75.09 56 66.18 56 57 C52.29265625 57.05800781 48.5853125 57.11601562 44.765625 57.17578125 C41.17808166 57.21476617 37.59056185 57.24513134 34.00292969 57.2746582 C31.50803072 57.29981494 29.01320554 57.33394403 26.51855469 57.37719727 C22.93405972 57.43779434 19.35053837 57.46619892 15.765625 57.48828125 C14.09043793 57.52699089 14.09043793 57.52699089 12.38140869 57.56648254 C4.86251599 57.56921084 4.86251599 57.56921084 1.2890625 55.2109375 C-0.71604586 50.21639485 -0.48961179 45.46662601 -0.390625 40.13671875 C-0.38496521 38.98959915 -0.37930542 37.84247955 -0.37347412 36.66059875 C-0.35111197 33.00247187 -0.30091327 29.34533006 -0.25 25.6875 C-0.22993491 23.20509229 -0.21168416 20.7226692 -0.1953125 18.24023438 C-0.15124759 12.15982105 -0.08433594 6.07998091 0 0 Z " fill="#2C6AB6" transform="translate(360,134)"/>
<path d="M0 0 C4.87402279 0.81233713 9.5233487 2.37826623 14.21875 3.88671875 C18.55734569 5.22511582 22.94016516 6.28882796 27.359375 7.32421875 C29.625 7.9375 29.625 7.9375 30.625 8.9375 C30.71351529 11.53109322 30.74025945 14.09789691 30.72265625 16.69140625 C30.7212413 17.46685287 30.71982635 18.2422995 30.71836853 19.04124451 C30.71275345 21.52753494 30.70019846 24.0137366 30.6875 26.5 C30.68248694 28.18163933 30.6779237 29.86328006 30.67382812 31.54492188 C30.66277913 35.67581566 30.64550445 39.80664276 30.625 43.9375 C28.625 40.9375 28.625 40.9375 28.625 38.9375 C27.305 38.6075 25.985 38.2775 24.625 37.9375 C24.13 26.5525 24.13 26.5525 23.625 14.9375 C21.15 14.339375 18.675 13.74125 16.125 13.125 C10.47340708 11.72650891 4.95267737 10.32951841 -0.375 7.9375 C-0.705 7.2775 -1.035 6.6175 -1.375 5.9375 C-3.01642963 4.8965934 -4.68212215 3.89245674 -6.375 2.9375 C-4.49230268 -0.00421456 -3.53310229 -0.06542782 0 0 Z " fill="#1E66BE" transform="translate(437.375,241.0625)"/>
<path d="M0 0 C1.03472946 -0.00563965 2.06945892 -0.0112793 3.13554382 -0.01708984 C4.2701857 -0.01304138 5.40482758 -0.00899292 6.57385254 -0.00482178 C8.36681511 -0.01007874 8.36681511 -0.01007874 10.19599915 -0.01544189 C13.47489847 -0.02274296 16.7536367 -0.02102189 20.03253365 -0.01468372 C23.46244778 -0.0096235 26.89235107 -0.01431524 30.32226562 -0.01745605 C36.08241715 -0.02109564 41.84251739 -0.01629683 47.60266113 -0.0067749 C54.26407845 0.00410966 60.92537335 0.00058408 67.5867877 -0.01042771 C73.30405587 -0.01950083 79.02128716 -0.02078575 84.7385602 -0.01555037 C88.15415231 -0.0124308 91.56968685 -0.01202096 94.98527527 -0.01862335 C98.79222979 -0.02368461 102.598947 -0.0159837 106.40588379 -0.00482178 C108.1078466 -0.01089447 108.1078466 -0.01089447 109.8441925 -0.01708984 C111.3962867 -0.00863037 111.3962867 -0.00863037 112.97973633 0 C113.88011879 0.00075405 114.78050125 0.0015081 115.70816803 0.002285 C117.98986816 0.25396729 117.98986816 0.25396729 120.98986816 2.25396729 C121.30236816 4.75396729 121.30236816 4.75396729 120.98986816 7.25396729 C118.4436617 9.80017375 117.54817214 9.50503227 114.01733398 9.50793457 C112.96570572 9.51357422 111.91407745 9.51921387 110.83058167 9.52502441 C109.67207199 9.52097595 108.51356232 9.51692749 107.31994629 9.51275635 C105.49553261 9.51801331 105.49553261 9.51801331 103.63426208 9.52337646 C100.29335687 9.53068551 96.95269841 9.52895147 93.61180687 9.52261829 C90.120026 9.51756438 86.62825588 9.52224805 83.13647461 9.52539062 C77.27199402 9.52903205 71.40756377 9.52422656 65.54309082 9.51470947 C58.75727508 9.50382456 51.97157952 9.50735001 45.1857667 9.51836228 C39.36577527 9.52743015 33.54582008 9.5287229 27.72582388 9.52348495 C24.24709191 9.52036247 20.76841648 9.51996345 17.28968811 9.52655792 C13.41300768 9.53339308 9.5364625 9.52392679 5.65979004 9.51275635 C4.50128036 9.51680481 3.34277069 9.52085327 2.14915466 9.52502441 C1.0975264 9.51938477 0.04589813 9.51374512 -1.03759766 9.50793457 C-1.95494942 9.50718052 -2.87230118 9.50642647 -3.81745148 9.50564957 C-6.01013184 9.25396729 -6.01013184 9.25396729 -8.01013184 7.25396729 C-8.32263184 4.75396729 -8.32263184 4.75396729 -8.01013184 2.25396729 C-4.73288826 0.06913824 -3.79669042 0.00317965 0 0 Z M-5.01013184 2.25396729 C-6.34346517 5.25396729 -6.34346517 5.25396729 -5.01013184 8.25396729 C35.57986816 8.25396729 76.16986816 8.25396729 117.98986816 8.25396729 C117.98986816 6.27396729 117.98986816 4.29396729 117.98986816 2.25396729 C77.39986816 2.25396729 36.80986816 2.25396729 -5.01013184 2.25396729 Z " fill="#31659E" transform="translate(281.0101318359375,208.74603271484375)"/>
<path d="M0 0 C1.32 0 2.64 0 4 0 C4 0.66 4 1.32 4 2 C4.67546875 1.98839844 5.3509375 1.97679687 6.046875 1.96484375 C7.38492188 1.95130859 7.38492188 1.95130859 8.75 1.9375 C10.07257813 1.92009766 10.07257813 1.92009766 11.421875 1.90234375 C14 2 14 2 15.72875977 2.48852539 C18.80431601 3.18112889 21.76712577 3.20361964 24.91796875 3.28125 C25.90474358 3.30886414 25.90474358 3.30886414 26.91145325 3.33703613 C29.71644331 3.41550147 32.52165584 3.48373951 35.3269043 3.55224609 C37.37821833 3.60383064 39.42931773 3.66109858 41.48046875 3.71875 C42.70660889 3.74904297 43.93274902 3.77933594 45.19604492 3.81054688 C48 4 48 4 49 5 C49.21128356 7.64984799 49.37612666 10.28339897 49.5 12.9375 C49.54291236 18.12702618 49.54291236 18.12702618 51 23 C88.62 23.33 126.24 23.66 165 24 C165 23.34 165 22.68 165 22 C164.34 22 163.68 22 163 22 C163 21.01 163 20.02 163 19 C163.99 19.33 164.98 19.66 166 20 C167.1875 23.0625 167.1875 23.0625 168 26 C152.94456529 26.02335789 137.88913198 26.0409934 122.83368301 26.05181217 C115.84321741 26.05696898 108.85276307 26.06399998 101.86230469 26.07543945 C95.11907547 26.0864691 88.37586037 26.09228067 81.63262177 26.09487724 C79.05696173 26.09672823 76.48130235 26.10034263 73.90564728 26.10573006 C70.304597 26.11296428 66.70359541 26.11398992 63.10253906 26.11352539 C62.0322345 26.11712067 60.96192993 26.12071594 59.85919189 26.12442017 C58.87765137 26.1230455 57.89611084 26.12167084 56.88482666 26.12025452 C56.03308994 26.12117631 55.18135323 26.1220981 54.3038063 26.12304783 C52.04049195 26.0021627 50.13877356 25.75157063 48 25 C46.34502644 21.69005287 46.89915665 18.00877 46.9375 14.375 C46.94201172 13.57320313 46.94652344 12.77140625 46.95117188 11.9453125 C46.96296832 9.96350994 46.98090395 7.98174567 47 6 C46.13947021 6.02094727 45.27894043 6.04189453 44.39233398 6.06347656 C11.19281492 6.7659237 11.19281492 6.7659237 1 2 C0.67 1.34 0.34 0.68 0 0 Z " fill="#3D72B1" transform="translate(204,303)"/>
<path d="M0 0 C1.65 0.33 3.3 0.66 5 1 C5.90596143 3.71788429 6.12630251 5.29313554 6.12939453 8.08496094 C6.13254669 8.90301208 6.13569885 9.72106323 6.13894653 10.56390381 C6.1369223 11.4451593 6.13489807 12.32641479 6.1328125 13.234375 C6.13376923 14.14576233 6.13472595 15.05714966 6.13571167 15.99615479 C6.13639236 17.92614816 6.13454578 19.85614383 6.13037109 21.78613281 C6.12504592 24.72466254 6.13030706 27.66303769 6.13671875 30.6015625 C6.13605747 32.479167 6.13477527 34.35677141 6.1328125 36.234375 C6.13483673 37.10753357 6.13686096 37.98069214 6.13894653 38.88031006 C6.12068431 43.69278489 5.80755717 48.25409799 5 53 C2.36 53 -0.28 53 -3 53 C-2.11688893 46.43974631 -2.11688893 46.43974631 -1.47767639 44.03497314 C-0.96885055 41.86729868 -0.84158321 39.9150895 -0.79467773 37.69042969 C-0.77473251 36.84986023 -0.75478729 36.00929077 -0.73423767 35.14324951 C-0.71752518 34.24519592 -0.70081268 33.34714233 -0.68359375 32.421875 C-0.66281265 31.4953009 -0.64203156 30.56872681 -0.62062073 29.61407471 C-0.55533039 26.65945728 -0.49633569 23.70475232 -0.4375 20.75 C-0.39429527 18.74478268 -0.35068035 16.73957415 -0.30664062 14.734375 C-0.19967001 9.82300596 -0.09834482 4.91154903 0 0 Z " fill="#F1F8FA" transform="translate(469,243)"/>
<path d="M0 0 C0.89983109 0.00719055 1.79966217 0.0143811 2.72676086 0.02178955 C3.67314926 0.0214975 4.61953766 0.02120544 5.59460449 0.02090454 C8.73298712 0.02230153 11.87113439 0.0378801 15.00947571 0.05352783 C17.18137991 0.05725665 19.35328578 0.06010424 21.52519226 0.06210327 C27.24959433 0.06975006 32.97389537 0.08940752 38.69825745 0.11151123 C44.53635796 0.13194716 50.37447476 0.14110016 56.21260071 0.15118408 C67.67358267 0.17265243 79.13448955 0.20680096 90.59541321 0.24884033 C87.78343863 3.06081491 84.75530076 2.9478659 80.97041321 3.37384033 C80.26400696 3.46020752 79.55760071 3.54657471 78.82978821 3.63555908 C77.0859118 3.84765216 75.3407648 4.04925025 73.59541321 4.24884033 C73.26541321 6.22884033 72.93541321 8.20884033 72.59541321 10.24884033 C62.47733262 10.31829219 52.35930856 10.37162707 42.24103832 10.40427685 C37.54291565 10.41994561 32.84495582 10.44120588 28.14692688 10.47515869 C23.61468208 10.5077091 19.08259412 10.52568423 14.55024147 10.53347206 C12.81943098 10.53902335 11.08862925 10.54986346 9.35788536 10.5660305 C6.93711545 10.5877477 4.51699698 10.5908097 2.09614563 10.5894165 C1.37757385 10.60020233 0.65900208 10.61098816 -0.0813446 10.62210083 C-2.98440062 10.60397292 -4.93324273 10.57796981 -7.35385132 8.88771057 C-8.84216728 6.56633017 -8.75047385 4.94675938 -8.40458679 2.24884033 C-5.7142853 -0.44146116 -3.65520953 0.01227146 0 0 Z M-5.40458679 2.24884033 C-6.80229263 5.9957548 -6.80229263 5.9957548 -5.40458679 8.24884033 C-1.84735817 9.43458321 0.97317865 9.36874226 4.72895813 9.36236572 C5.81226158 9.36258476 5.81226158 9.36258476 6.91744995 9.36280823 C9.30362455 9.36211178 11.689721 9.35433193 14.07588196 9.34649658 C15.73069211 9.34463145 17.38550282 9.343208 19.04031372 9.34220886 C23.39522324 9.33839119 27.75009939 9.32856728 32.10499573 9.31750488 C36.54906259 9.30727467 40.99313484 9.30270779 45.43721008 9.29766846 C54.15662643 9.28694436 62.87601567 9.26987691 71.59541321 9.24884033 C71.92541321 6.93884033 72.25541321 4.62884033 72.59541321 2.24884033 C46.85541321 2.24884033 21.11541321 2.24884033 -5.40458679 2.24884033 Z " fill="#4E7AB0" transform="translate(281.4045867919922,236.75115966796875)"/>
<path d="M0 0 C1.22133636 0.00444122 2.44267273 0.00888245 3.70101929 0.01345825 C4.37430771 0.0131662 5.04759613 0.01287415 5.74128723 0.01257324 C7.97067067 0.01396856 10.19972145 0.02953887 12.42904663 0.04519653 C13.97318336 0.04892595 15.51732246 0.05177326 17.0614624 0.05377197 C21.12873856 0.06141404 25.19587224 0.08106736 29.26309204 0.10317993 C33.41214063 0.12362607 37.5612122 0.13277105 41.71029663 0.14285278 C49.85359124 0.16431279 57.99676997 0.19845555 66.13998413 0.24050903 C67.38998413 6.86550903 67.38998413 6.86550903 65.13998413 10.24050903 C62.37608337 10.62145996 62.37608337 10.62145996 58.81015015 10.62869263 C58.16118774 10.63394958 57.51222534 10.63920654 56.84359741 10.6446228 C54.69345183 10.65785115 52.54404379 10.64907446 50.39389038 10.63894653 C48.90177773 10.64096672 47.40966603 10.64387769 45.91755676 10.64764404 C42.78774633 10.65207141 39.6581925 10.64562427 36.52841187 10.63162231 C32.51536622 10.61454466 28.50292308 10.6243595 24.48989964 10.64233971 C21.40753133 10.65317923 18.32530588 10.64973024 15.24293327 10.64195633 C13.763345 10.639954 12.28374378 10.64241476 10.80417061 10.64939499 C8.73550189 10.65701096 6.66780868 10.64540429 4.59921265 10.62869263 C2.83288231 10.62511246 2.83288231 10.62511246 1.03086853 10.62145996 C-1.86001587 10.24050903 -1.86001587 10.24050903 -3.7441864 8.87640381 C-5.32051869 6.56537527 -5.21037681 4.97332435 -4.86001587 2.24050903 C-2.86001587 0.24050903 -2.86001587 0.24050903 0 0 Z M-1.86001587 2.24050903 C-2.19001587 3.89050903 -2.52001587 5.54050903 -2.86001587 7.24050903 C-1.7812228 8.54413499 -1.7812228 8.54413499 0.80381775 8.36076355 C1.99184494 8.35854294 3.17987213 8.35632233 4.40390015 8.35403442 C5.0575354 8.35418045 5.71117065 8.35432648 6.38461304 8.35447693 C8.55440541 8.35377786 10.72411292 8.34598581 12.89389038 8.33816528 C14.39461724 8.33630108 15.8953447 8.33487719 17.39607239 8.33387756 C21.35316639 8.33005256 25.31022391 8.32022243 29.26730347 8.30917358 C33.30233262 8.29895909 37.33736766 8.29437986 41.37240601 8.28933716 C49.29494882 8.27860014 57.21746194 8.26152393 65.13998413 8.24050903 C65.13998413 6.26050903 65.13998413 4.28050903 65.13998413 2.24050903 C43.02998413 2.24050903 20.91998413 2.24050903 -1.86001587 2.24050903 Z " fill="#5384C0" transform="translate(277.8600158691406,151.75949096679688)"/>
<path d="M0 0 C1.18571594 -0.00043808 1.18571594 -0.00043808 2.39538574 -0.00088501 C5.00890062 0.00050864 7.62213061 0.0160714 10.2355957 0.03173828 C12.04734644 0.03546829 13.85909919 0.03831532 15.67085266 0.04031372 C20.44008958 0.04795114 25.20920475 0.06760058 29.97839355 0.08972168 C34.84470981 0.11017775 39.71104573 0.11931493 44.57739258 0.12939453 C54.12627421 0.15084636 63.67506546 0.18498364 73.22387695 0.22705078 C74.70219955 3.18369597 74.28420478 5.96934815 74.22387695 9.22705078 C63.28891224 9.25017376 52.3539533 9.26796563 41.41896915 9.27886295 C36.34196678 9.28409188 31.26498106 9.2911897 26.18798828 9.30249023 C21.29267143 9.31331877 16.39737067 9.31932754 11.50204277 9.32192802 C9.63004745 9.32378234 7.75805305 9.32740306 5.88606453 9.33278084 C3.27346996 9.33999083 0.66094269 9.34104174 -1.95166016 9.34057617 C-2.73352692 9.34417145 -3.51539368 9.34776672 -4.32095337 9.35147095 C-9.66207089 9.34110294 -9.66207089 9.34110294 -10.77612305 8.22705078 C-11.02612305 5.28955078 -11.02612305 5.28955078 -10.77612305 2.22705078 C-7.07490874 -0.24042543 -4.27887245 -0.04120877 0 0 Z M-8.77612305 3.22705078 C-8.81676137 4.89322193 -8.81884405 6.56093173 -8.77612305 8.22705078 C-0.13454687 8.25036624 8.50701584 8.26806273 17.14861584 8.27886295 C21.1625652 8.28405019 25.17649283 8.29107093 29.19042969 8.30249023 C33.0743207 8.31346864 36.95819098 8.31935882 40.84209633 8.32192802 C42.31342202 8.32375564 43.78474676 8.32732348 45.25606346 8.33278084 C54.28963091 8.36491199 63.22531422 8.07828003 72.22387695 7.22705078 C71.23387695 4.75205078 71.23387695 4.75205078 70.22387695 2.22705078 C60.07121545 2.20392686 49.91856016 2.18613544 39.76587772 2.17523861 C35.05207962 2.17000989 30.33829948 2.16291245 25.62451172 2.15161133 C21.07932292 2.14078205 16.53415143 2.13477386 11.98895073 2.13217354 C10.25092737 2.13031936 8.51290502 2.12669889 6.77488899 2.12132072 C4.34909101 2.11410975 1.92336549 2.11305986 -0.50244141 2.11352539 C-1.5910849 2.10813248 -1.5910849 2.10813248 -2.70172119 2.10263062 C-6.02212192 1.81886478 -6.02212192 1.81886478 -8.77612305 3.22705078 Z " fill="#3E74B5" transform="translate(283.776123046875,293.77294921875)"/>
<path d="M0 0 C2.3046875 0.40625 2.3046875 0.40625 5.3046875 2.40625 C8.10585433 7.27143449 7.3046875 10.19861404 7.3046875 16.40625 C0.7046875 16.40625 -5.8953125 16.40625 -12.6953125 16.40625 C-12.6953125 6.40625 -12.6953125 6.40625 -10.8203125 2.78125 C-6.96303819 -0.15027847 -4.71350555 -0.17192118 0 0 Z " fill="#F8FBFB" transform="translate(417.6953125,262.59375)"/>
<path d="M0 0 C3.02243095 1.49668456 5.12501601 3.19074563 7 6 C7.66796875 8.203125 7.66796875 8.203125 8 10 C7.01 10.495 7.01 10.495 6 11 C6 10.01 6 9.02 6 8 C5.34 8 4.68 8 4 8 C3.67 9.98 3.34 11.96 3 14 C1 12 1 12 0 9 C-3.72573828 7.13713086 -7.94199458 7.44931752 -12 8 C-15.05310382 10.23397841 -15.80089945 11.86599252 -16.44921875 15.55859375 C-16.71927032 18.03114386 -16.86753472 20.51627601 -17 23 C-10.4 23 -3.8 23 3 23 C2.67 23.66 2.34 24.32 2 25 C-1.31248187 25.02888146 -4.62493167 25.04675799 -7.9375 25.0625 C-8.88302734 25.07087891 -9.82855469 25.07925781 -10.80273438 25.08789062 C-12.15141602 25.09272461 -12.15141602 25.09272461 -13.52734375 25.09765625 C-14.77632446 25.10551147 -14.77632446 25.10551147 -16.05053711 25.11352539 C-18 25 -18 25 -19 24 C-19.07258946 21.81360547 -19.08373783 19.62499611 -19.0625 17.4375 C-19.05347656 16.23996094 -19.04445313 15.04242188 -19.03515625 13.80859375 C-19.02355469 12.88175781 -19.01195312 11.95492188 -19 11 C-19.99 11.495 -19.99 11.495 -21 12 C-21.66 11.67 -22.32 11.34 -23 11 C-22.67 9.68 -22.34 8.36 -22 7 C-21.34 7 -20.68 7 -20 7 C-19.7525 6.401875 -19.505 5.80375 -19.25 5.1875 C-15.15388681 -1.98069808 -7.28786948 -1.03520873 0 0 Z " fill="#326AA8" transform="translate(422,256)"/>
<path d="M0 0 C0.33 0 0.66 0 1 0 C1.33 7.59 1.66 15.18 2 23 C2.99 23.33 3.98 23.66 5 24 C7.48166774 28.21883515 6.93615124 31.31924381 6 36 C5.86335938 36.7734375 5.72671875 37.546875 5.5859375 38.34375 C4.19568117 45.60135931 4.19568117 45.60135931 1 48 C-2.6875 48.1875 -2.6875 48.1875 -6 48 C-6.17440358 42.85509449 -5.92210927 39.78116068 -4 35 C-3.41357929 32.43265575 -2.89106198 29.90261694 -2.4375 27.3125 C-2.24353638 26.21820679 -2.24353638 26.21820679 -2.0456543 25.10180664 C-0.66297954 16.77833464 -0.28564345 8.42155694 0 0 Z " fill="#2066BD" transform="translate(461,256)"/>
<path d="M0 0 C1.66228137 3.05141792 2.80884282 6.20824003 3.95361328 9.48339844 C7.00328102 18.12310918 10.49190627 26.57387161 17.1484375 33.109375 C19 35 19 35 20 38 C19.34 38 18.68 38 18 38 C18 37.34 18 36.68 18 36 C17.01 36 16.02 36 15 36 C15 36.99 15 37.98 15 39 C14.34 39 13.68 39 13 39 C13.82128186 41.17605071 13.82128186 41.17605071 16 41.875 C18 43 18 43 18.625 45.0625 C18.74875 45.701875 18.8725 46.34125 19 47 C19.66 47.33 20.32 47.66 21 48 C16.94519369 48 15.15167025 46.45129908 12 44 C12 43.01 12 42.02 12 41 C11.01 40.67 10.02 40.34 9 40 C7.29721024 37.73540545 5.75986828 35.51125871 4.25 33.125 C3.82589844 32.48691406 3.40179688 31.84882813 2.96484375 31.19140625 C1.88952848 29.51363422 0.93563522 27.75949102 0 26 C0.495 24.515 0.495 24.515 1 23 C2.33333333 24.33333333 3.66666667 25.66666667 5 27 C5.99 26.67 6.98 26.34 8 26 C7.34 25.01 6.68 24.02 6 23 C6 22.01 6 21.02 6 20 C5.34 20 4.68 20 4 20 C3.87882812 19.33613281 3.75765625 18.67226563 3.6328125 17.98828125 C2.60670102 12.48955189 2.60670102 12.48955189 0.875 7.1875 C-0.13480892 4.66297771 -0.15396332 2.69435805 0 0 Z " fill="#306DB5" transform="translate(371,288)"/>
<path d="M0 0 C2.54352483 -0.28660203 4.84286964 -0.37857678 7.38720703 -0.34057617 C8.52881287 -0.34123329 8.52881287 -0.34123329 9.69348145 -0.34190369 C12.21518393 -0.33980959 14.73622583 -0.31645001 17.2578125 -0.29296875 C19.00372962 -0.28737499 20.74965144 -0.28310385 22.49557495 -0.28010559 C27.0955704 -0.26863948 31.69528263 -0.23915727 36.29516602 -0.20599365 C40.98710295 -0.17533071 45.67908555 -0.16160835 50.37109375 -0.14648438 C59.58085375 -0.11428913 68.79040334 -0.06307159 78 0 C78 3.3 78 6.6 78 10 C67.86462398 10.04627451 57.72927296 10.08184427 47.59381294 10.10362434 C42.88786217 10.11407597 38.18198349 10.12826022 33.47607422 10.15087891 C28.93735924 10.17255826 24.39871376 10.18455823 19.85995102 10.18975449 C18.12553691 10.19345909 16.39112674 10.20069294 14.6567421 10.21146011 C12.23347914 10.22590995 9.81050591 10.2279807 7.38720703 10.22705078 C6.30395645 10.23783661 6.30395645 10.23783661 5.19882202 10.24884033 C0.22810432 10.22810432 0.22810432 10.22810432 -2 8 C-2.38286803 4.26703674 -2.14915785 3.22373677 0 0 Z M2 1 C1.34 2.98 0.68 4.96 0 7 C3.74099384 9.4939959 5.66335763 9.24222969 10.13354492 9.22705078 C11.21684837 9.22748886 11.21684837 9.22748886 12.32203674 9.22793579 C14.70830312 9.22654285 17.09425695 9.21098353 19.48046875 9.1953125 C21.1352776 9.19158224 22.79008866 9.18873533 24.44490051 9.18673706 C28.79985657 9.17910163 33.15467918 9.15945393 37.50958252 9.1373291 C41.95363561 9.11686873 46.39771026 9.10773494 50.84179688 9.09765625 C59.56125915 9.07620793 68.28061297 9.0420731 77 9 C77 6.36 77 3.72 77 1 C52.25 1 27.5 1 2 1 Z " fill="#5E85B7" transform="translate(275,265)"/>
<path d="M0 0 C3.11249149 0.40597715 5.22928561 1.62237019 7.75 3.4375 C8.36359375 3.86933594 8.9771875 4.30117187 9.609375 4.74609375 C10.06828125 5.15988281 10.5271875 5.57367188 11 6 C11 6.66 11 7.32 11 8 C11.66 8 12.32 8 13 8 C13 8.66 13 9.32 13 10 C13.66 10 14.32 10 15 10 C14.67 11.65 14.34 13.3 14 15 C9.25 14.125 9.25 14.125 7 13 C7 12.34 7 11.68 7 11 C2.05 11 -2.9 11 -8 11 C-8.33 10.34 -8.66 9.68 -9 9 C-7.33333333 7.33333333 -5.66666667 5.66666667 -4 4 C-2.9790625 2.824375 -2.9790625 2.824375 -1.9375 1.625 C-1.298125 1.08875 -0.65875 0.5525 0 0 Z " fill="#1E66BF" transform="translate(413,226)"/>
<path d="M0 0 C0.66 0.33 1.32 0.66 2 1 C2 1.99 2 2.98 2 4 C-1.50538557 5.96301592 -5.13351728 6.95902388 -9 8 C-7.89958081 9.68681738 -7.89958081 9.68681738 -6 11 C-2.85078091 10.76716851 -2.85078091 10.76716851 0 10 C0.33 9.01 0.66 8.02 1 7 C1.804375 6.87625 2.60875 6.7525 3.4375 6.625 C4.283125 6.41875 5.12875 6.2125 6 6 C6.33 5.34 6.66 4.68 7 4 C8.98 4 10.96 4 13 4 C9.18571736 8.21578607 4.03157868 10.61517321 -0.9375 13.25 C-2.43603516 14.06210937 -2.43603516 14.06210937 -3.96484375 14.890625 C-8.46941246 16.53708255 -11.39725374 15.65618855 -15.73828125 13.87890625 C-16.58777344 13.44449219 -17.43726563 13.01007813 -18.3125 12.5625 C-19.17488281 12.13066406 -20.03726562 11.69882812 -20.92578125 11.25390625 C-23 10 -23 10 -24 8 C-20.97580475 8.58803797 -17.98241547 9.22678118 -15 10 C-14.06934867 7.39417629 -13.85082593 6.35801776 -14.9375 3.75 C-15.288125 3.1725 -15.63875 2.595 -16 2 C-15.34 2 -14.68 2 -14 2 C-14 2.66 -14 3.32 -14 4 C-7.73920552 4.43177893 -4.90924297 3.92739438 0 0 Z " fill="#4379BB" transform="translate(424,335)"/>
<path d="M0 0 C1.32 0 2.64 0 4 0 C4 0.66 4 1.32 4 2 C4.67546875 1.98839844 5.3509375 1.97679687 6.046875 1.96484375 C7.38492188 1.95130859 7.38492188 1.95130859 8.75 1.9375 C10.07257813 1.92009766 10.07257813 1.92009766 11.421875 1.90234375 C14 2 14 2 15.72875977 2.48852539 C18.80431601 3.18112889 21.76712577 3.20361964 24.91796875 3.28125 C25.90474358 3.30886414 25.90474358 3.30886414 26.91145325 3.33703613 C29.71644331 3.41550147 32.52165584 3.48373951 35.3269043 3.55224609 C37.37821833 3.60383064 39.42931773 3.66109858 41.48046875 3.71875 C42.70660889 3.74904297 43.93274902 3.77933594 45.19604492 3.81054688 C48 4 48 4 49 5 C49.23755563 8.33709105 49.39574879 11.66688742 49.51757812 15.00976562 C49.70057859 18.78371861 49.91523356 21.78422667 52 25 C50.68 25 49.36 25 48 25 C46.34502644 21.69005287 46.89915665 18.00877 46.9375 14.375 C46.94201172 13.57320313 46.94652344 12.77140625 46.95117188 11.9453125 C46.96296832 9.96350994 46.98090395 7.98174567 47 6 C46.13947021 6.02094727 45.27894043 6.04189453 44.39233398 6.06347656 C11.19281492 6.7659237 11.19281492 6.7659237 1 2 C0.67 1.34 0.34 0.68 0 0 Z " fill="#5480B7" transform="translate(204,303)"/>
<path d="M0 0 C15.87228054 -0.02333814 31.74455647 -0.04098369 47.6168499 -0.05181217 C54.98627165 -0.05697318 62.35568274 -0.06401217 69.72509766 -0.07543945 C76.146666 -0.08539224 82.56822664 -0.09185485 88.98980248 -0.09408849 C92.39142379 -0.09539459 95.79302304 -0.09847406 99.1946373 -0.10573006 C102.98768189 -0.11294482 106.78068016 -0.11399075 110.57373047 -0.11352539 C111.70733002 -0.11712067 112.84092957 -0.12071594 114.00888062 -0.12442017 C115.03815674 -0.1230455 116.06743286 -0.12167084 117.12789917 -0.12025452 C118.02572554 -0.12117631 118.9235519 -0.1220981 119.84858513 -0.12304783 C122 0 122 0 124 1 C124 2.65 124 4.3 124 6 C122.68 6.66 121.36 7.32 120 8 C120.33 5.69 120.66 3.38 121 1 C81.07 1 41.14 1 0 1 C0 0.67 0 0.34 0 0 Z " fill="#2963AF" transform="translate(278,210)"/>
<path d="M0 0 C0.99 0.33 1.98 0.66 3 1 C3.66 0.67 4.32 0.34 5 0 C5 0.66 5 1.32 5 2 C6.32 1.67 7.64 1.34 9 1 C8.50784387 7.39802971 5.53442607 13.46557393 1 18 C1 15.36 1 12.72 1 10 C-0.65 11.65 -2.3 13.3 -4 15 C-4.66 14.67 -5.32 14.34 -6 14 C-6 10.27792613 -4.82035432 8.53604411 -3 5.3125 C-2.443125 4.31863281 -1.88625 3.32476562 -1.3125 2.30078125 C-0.879375 1.54152344 -0.44625 0.78226562 0 0 Z " fill="#3571BE" transform="translate(454,302)"/>
<path d="M0 0 C0.33 0 0.66 0 1 0 C1.33 1.65 1.66 3.3 2 5 C10.6588458 5.02329919 19.3176806 5.04100387 27.97655106 5.05181217 C31.99837613 5.05700288 36.02017956 5.0640302 40.04199219 5.07543945 C43.93236246 5.08640518 47.82271207 5.09230545 51.71309662 5.09487724 C53.1880399 5.09670708 54.66298222 5.1002795 56.13791656 5.10573006 C64.80620317 5.13645268 73.3716875 4.90148169 82 4 C81.01 3.01 81.01 3.01 80 2 C80.66 1.34 81.32 0.68 82 0 C82.99 0 83.98 0 85 0 C85 2.31 85 4.62 85 7 C74.06503529 7.02312297 63.13007634 7.04091485 52.1950922 7.05181217 C47.11808982 7.0570411 42.04110411 7.06413892 36.96411133 7.07543945 C32.06879448 7.08626799 27.17349371 7.09227676 22.27816582 7.09487724 C20.40617049 7.09673155 18.53417609 7.10035228 16.66218758 7.10573006 C14.04959301 7.11294004 11.43706573 7.11399096 8.82446289 7.11352539 C8.04259613 7.11712067 7.26072937 7.12071594 6.45516968 7.12442017 C1.11405216 7.11405216 1.11405216 7.11405216 0 6 C-0.04080783 4.00041636 -0.04254356 1.99954746 0 0 Z " fill="#3469A8" transform="translate(273,296)"/>
<path d="M0 0 C0 0.99 0 1.98 0 3 C-1.98 3.99 -1.98 3.99 -4 5 C-4 14.57 -4 24.14 -4 34 C16.295 34.495 16.295 34.495 37 35 C37 35.33 37 35.66 37 36 C31.35834639 36.07410727 25.71697553 36.12858167 20.07495117 36.16479492 C18.15530462 36.1798898 16.2356926 36.20036773 14.31616211 36.22631836 C11.55834436 36.26267109 8.8009822 36.27971912 6.04296875 36.29296875 C5.18350143 36.30845261 4.32403412 36.32393646 3.43852234 36.33988953 C2.63791885 36.34011612 1.83731537 36.34034271 1.01245117 36.34057617 C0.3085173 36.34723801 -0.39541656 36.35389984 -1.12068176 36.36076355 C-3.57649101 35.88933384 -4.43804757 34.90964651 -6 33 C-8.22634301 28.54731399 -7.27477227 22.51451364 -7.3125 17.625 C-7.34150391 16.37976563 -7.37050781 15.13453125 -7.40039062 13.8515625 C-7.40876953 12.6553125 -7.41714844 11.4590625 -7.42578125 10.2265625 C-7.44036377 9.12908691 -7.45494629 8.03161133 -7.4699707 6.90087891 C-6.72480294 2.30135508 -4.72253959 0 0 0 Z " fill="#4B7AB1" transform="translate(398,279)"/>
<path d="M0 0 C2.33294775 -0.04241723 4.66702567 -0.04092937 7 0 C8 1 8 1 8.125 3.8125 C8.0204468 6.4786065 7.6365486 8.45380559 7 11 C6.96154557 12.99963028 6.95455719 15.00051633 7 17 C5.02 17 3.04 17 1 17 C1 13.7 1 10.4 1 7 C0.34 7 -0.32 7 -1 7 C-0.67 4.69 -0.34 2.38 0 0 Z " fill="#C7DFF1" transform="translate(411,289)"/>
<path d="M0 0 C1.9375 1.5625 1.9375 1.5625 3 3 C1.68 3 0.36 3 -1 3 C-1 3.99 -1 4.98 -1 6 C-1.99 6 -2.98 6 -4 6 C-4.33 10.29 -4.66 14.58 -5 19 C-5.33 18.01 -5.66 17.02 -6 16 C-7.32 16.99 -8.64 17.98 -10 19 C-9.67 12.73 -9.34 6.46 -9 0 C-5.85000502 -1.57499749 -3.36459118 -0.70833498 0 0 Z " fill="#1D67C2" transform="translate(372,248)"/>
<path d="M0 0 C3.35768799 0.57507363 5.72970718 1.25060808 8.0625 3.875 C8.0625 5.195 8.0625 6.515 8.0625 7.875 C9.62836008 9.44086008 11.4876488 9.48594693 13.625 9.9375 C14.45128906 10.11410156 15.27757812 10.29070312 16.12890625 10.47265625 C16.76699219 10.60542969 17.40507812 10.73820313 18.0625 10.875 C17.7325 11.535 17.4025 12.195 17.0625 12.875 C10.76978548 11.77893292 4.93117146 10.43587482 -0.9375 7.875 C-1.2675 7.215 -1.5975 6.555 -1.9375 5.875 C-3.57892963 4.8340934 -5.24462215 3.82995674 -6.9375 2.875 C-4.88869694 -0.32625478 -3.8986931 -0.12376803 0 0 Z " fill="#2768B8" transform="translate(437.9375,241.125)"/>
<path d="M0 0 C0.33 1.65 0.66 3.3 1 5 C1.99 5.33 2.98 5.66 4 6 C0.42238116 8.38507923 -2.77411166 8.95028367 -7 9 C-9.75 8.125 -9.75 8.125 -12 7 C-13.33106622 6.65772583 -14.66400079 6.32248257 -16 6 C-16.66 5.67 -17.32 5.34 -18 5 C-18.33 6.65 -18.66 8.3 -19 10 C-19.6875 8.1875 -19.6875 8.1875 -20 6 C-18.23141919 3.41167554 -17.022947 3.00520327 -13.93359375 2.3046875 C-12.77988281 2.16289062 -11.62617188 2.02109375 -10.4375 1.875 C-6.95908233 1.43292685 -3.35393951 0 0 0 Z " fill="#F8FAF8" transform="translate(374,237)"/>
<path d="M0 0 C0 1.32 0 2.64 0 4 C-0.99 4 -1.98 4 -3 4 C-3.33 4.99 -3.66 5.98 -4 7 C-5.65 7 -7.3 7 -9 7 C-9.33 8.32 -9.66 9.64 -10 11 C-12.31 11.33 -14.62 11.66 -17 12 C-17 11.34 -17 10.68 -17 10 C-18.32 9.34 -19.64 8.68 -21 8 C-17 6.66666667 -13 5.33333333 -9 4 C-9 3.01 -9 2.02 -9 1 C-5.57367167 -0.61798838 -3.61944899 -1.34053666 0 0 Z " fill="#1E68C1" transform="translate(434,335)"/>
<path d="M0 0 C4.21856828 0.6423729 6.32590638 1.85293102 9.30078125 4.8203125 C10.55988218 6.70680049 11.02762832 8.3053084 11.4375 10.5234375 C10.4475 11.0184375 10.4475 11.0184375 9.4375 11.5234375 C9.4375 10.5334375 9.4375 9.5434375 9.4375 8.5234375 C8.7775 8.5234375 8.1175 8.5234375 7.4375 8.5234375 C7.1075 10.5034375 6.7775 12.4834375 6.4375 14.5234375 C4.4375 12.5234375 4.4375 12.5234375 3.4375 9.5234375 C0.94995214 8.27966357 -0.78905301 8.39037515 -3.5625 8.3984375 C-4.8928125 8.39457031 -4.8928125 8.39457031 -6.25 8.390625 C-8.58926966 8.37215848 -8.58926966 8.37215848 -10.5625 9.5234375 C-10.5625 8.5334375 -10.5625 7.5434375 -10.5625 6.5234375 C-5.6125 6.5234375 -0.6625 6.5234375 4.4375 6.5234375 C4.1075 5.5334375 3.7775 4.5434375 3.4375 3.5234375 C1.37507383 3.49626058 -0.68745703 3.4769617 -2.75 3.4609375 C-3.89855469 3.44933594 -5.04710937 3.43773437 -6.23046875 3.42578125 C-9.15550586 3.51150918 -11.72566291 3.84494727 -14.5625 4.5234375 C-10.37905141 -0.6877069 -6.3135431 -0.17099179 0 0 Z " fill="#4176B6" transform="translate(418.5625,255.4765625)"/>
<path d="M0 0 C0.99 0.33 1.98 0.66 3 1 C5.81354711 1.12026065 8.60417015 1.18537479 11.41870117 1.20532227 C12.70682961 1.22017166 12.70682961 1.22017166 14.02098083 1.23532104 C16.86161535 1.26692766 19.7022666 1.29169021 22.54296875 1.31640625 C24.51166724 1.3369765 26.48036132 1.35797299 28.4490509 1.37937927 C33.63248118 1.43459262 38.81595127 1.48400518 43.99945068 1.53222656 C49.28808132 1.58244694 54.57665409 1.63813021 59.86523438 1.69335938 C70.24344016 1.80093195 80.62169617 1.90237896 91 2 C91 2.33 91 2.66 91 3 C60.31 3 29.62 3 -2 3 C-1.34 2.01 -0.68 1.02 0 0 Z " fill="#E9FAFE" transform="translate(278,234)"/>
<path d="M0 0 C0.33 0 0.66 0 1 0 C1.02715383 1.74991334 1.04646551 3.49994945 1.0625 5.25 C1.07410156 6.22453125 1.08570313 7.1990625 1.09765625 8.203125 C1.01195577 10.65758678 0.70706066 12.66168914 0 15 C1.65 15 3.3 15 5 15 C5 14.01 5 13.02 5 12 C6.32 12 7.64 12 9 12 C9.66 10.68 10.32 9.36 11 8 C11.99 8.33 12.98 8.66 14 9 C8.98626934 14.21837273 4.13497461 19.11868953 -2 23 C-2.66 23 -3.32 23 -4 23 C-3.52524326 19.72851069 -3.04443581 16.45793881 -2.5625 13.1875 C-2.42779297 12.25873047 -2.29308594 11.32996094 -2.15429688 10.37304688 C-2.02216797 9.48037109 -1.89003906 8.58769531 -1.75390625 7.66796875 C-1.63345947 6.84578857 -1.5130127 6.0236084 -1.38891602 5.17651367 C-1 3 -1 3 0 0 Z " fill="#356CAE" transform="translate(477,272)"/>
<path d="M0 0 C1.670625 0.680625 1.670625 0.680625 3.375 1.375 C8.1962233 3.17874438 12.93413158 4.05751285 18 5 C22.62 5.99 27.24 6.98 32 8 C32 20.54 32 33.08 32 46 C31.67 46 31.34 46 31 46 C30.67 34.45 30.34 22.9 30 11 C21.585 9.02 21.585 9.02 13 7 C4 3.625 4 3.625 0 2 C0 1.34 0 0.68 0 0 Z " fill="#4074AE" transform="translate(437,239)"/>
<path d="M0 0 C0.99 0.99 1.98 1.98 3 3 C2.67 3.66 2.34 4.32 2 5 C1.84339117 7.62380313 1.7417092 10.22524852 1.68359375 12.8515625 C1.66281265 13.62559418 1.64203156 14.39962585 1.62062073 15.19711304 C1.55516552 17.67298392 1.49625913 20.14896202 1.4375 22.625 C1.39431093 24.30209448 1.35069652 25.97917807 1.30664062 27.65625 C1.19868658 31.77072498 1.09958386 35.88527977 1 40 C11.89 39.67 22.78 39.34 34 39 C34.33 38.01 34.66 37.02 35 36 C36.32 37.65 37.64 39.3 39 41 C26.13 41 13.26 41 0 41 C0 27.47 0 13.94 0 0 Z " fill="#CAE2F9" transform="translate(370,140)"/>
<path d="M0 0 C-0.85464844 0.27714844 -1.70929688 0.55429688 -2.58984375 0.83984375 C-3.69457031 1.20207031 -4.79929687 1.56429687 -5.9375 1.9375 C-7.03964844 2.29714844 -8.14179688 2.65679687 -9.27734375 3.02734375 C-11.88123475 3.73856668 -11.88123475 3.73856668 -13 5 C-15.33157492 5.34541851 -17.66508361 5.67794257 -20 6 C-20.99 6.33 -21.98 6.66 -23 7 C-22.67 17.23 -22.34 27.46 -22 38 C-22.33 38 -22.66 38 -23 38 C-24.42033442 26.92900046 -25.2964981 16.16809528 -25 5 C-21.58805052 3.96292107 -18.16984355 2.94821392 -14.75 1.9375 C-13.78191406 1.64294922 -12.81382812 1.34839844 -11.81640625 1.04492188 C-10.88183594 0.77099609 -9.94726562 0.49707031 -8.984375 0.21484375 C-8.12553711 -0.04176025 -7.26669922 -0.29836426 -6.38183594 -0.56274414 C-3.86951531 -1.02395429 -2.3940048 -0.81657856 0 0 Z " fill="#C6DEF1" transform="translate(394,250)"/>
<path d="M0 0 C0 1.65 0 3.3 0 5 C-1.32 5 -2.64 5 -4 5 C-4 5.66 -4 6.32 -4 7 C-9.3938615 9.98383828 -12.34291158 10.17766208 -18.27734375 8.54296875 C-18.84582031 8.36378906 -19.41429687 8.18460938 -20 8 C-20 7.67 -20 7.34 -20 7 C-15.545 6.505 -15.545 6.505 -11 6 C-10.67 4.68 -10.34 3.36 -10 2 C-3.375 0 -3.375 0 0 0 Z " fill="#1E67C0" transform="translate(402,238)"/>
<path d="M0 0 C2.875 0.3125 2.875 0.3125 6 1 C6.66 1.99 7.32 2.98 8 4 C8.680625 4.309375 9.36125 4.61875 10.0625 4.9375 C12 6 12 6 12.75 8.125 C12.87375 9.053125 12.87375 9.053125 13 10 C13.928125 10.144375 14.85625 10.28875 15.8125 10.4375 C19 11 19 11 22 12 C22.99 13.485 22.99 13.485 24 15 C25.96361864 15.57748803 25.96361864 15.57748803 28.125 15.6875 C29.40375 15.790625 30.6825 15.89375 32 16 C31.67 16.99 31.34 17.98 31 19 C25.20385115 18.04028908 21.4842824 16.9860288 17 13 C16.236875 12.71125 15.47375 12.4225 14.6875 12.125 C10.68814733 10.45085237 7.20084437 7.9228554 4 5 C4 4.34 4 3.68 4 3 C2.68 2.34 1.36 1.68 0 1 C0 0.67 0 0.34 0 0 Z " fill="#537DBA" transform="translate(169,284)"/>
<path d="M0 0 C1.98 0.495 1.98 0.495 4 1 C3.34 1 2.68 1 2 1 C2 12.88 2 24.76 2 37 C-2.26760646 30.59859031 -1.15180042 22.18265044 -1.125 14.75 C-1.12886719 13.66203125 -1.13273437 12.5740625 -1.13671875 11.453125 C-1.13542969 10.4115625 -1.13414062 9.37 -1.1328125 8.296875 C-1.13168457 7.35166992 -1.13055664 6.40646484 -1.12939453 5.43261719 C-1 3 -1 3 0 0 Z " fill="#3B71AF" transform="translate(361,247)"/>
<path d="M0 0 C1.74216797 0.02707031 1.74216797 0.02707031 3.51953125 0.0546875 C4.39996094 0.07789063 5.28039062 0.10109375 6.1875 0.125 C6.5175 1.445 6.8475 2.765 7.1875 4.125 C2.2375 4.125 -2.7125 4.125 -7.8125 4.125 C-7.8125 5.115 -7.8125 6.105 -7.8125 7.125 C-9.4625 6.795 -11.1125 6.465 -12.8125 6.125 C-12.625 4.25 -12.625 4.25 -11.8125 2.125 C-7.83813424 0.02092401 -4.44333546 -0.08976435 0 0 Z " fill="#1D67BD" transform="translate(415.8125,257.875)"/>
<path d="M0 0 C4.5891434 1.44519986 7.63352964 4.06468279 11.0625 7.3125 C11.8369043 8.0230957 11.8369043 8.0230957 12.62695312 8.74804688 C15.72251282 11.63066361 18.43382399 14.62150928 21 18 C18.69 18 16.38 18 14 18 C13.938125 17.21625 13.87625 16.4325 13.8125 15.625 C13.544375 14.75875 13.27625 13.8925 13 13 C11.34561387 12.30341637 9.67745682 11.63903117 8 11 C6.94895617 9.36504293 5.94011682 7.70116376 5 6 C4.34 6 3.68 6 3 6 C0 2.53846154 0 2.53846154 0 0 Z " fill="#5681BD" transform="translate(388,89)"/>
<path d="M0 0 C2.375 -0.1875 2.375 -0.1875 5 0 C9.54688411 6.82032617 8.09597878 16.78574882 8.125 24.75 C8.13200928 26.09843994 8.13200928 26.09843994 8.13916016 27.47412109 C8.12723877 32.4233292 7.83978594 37.12124356 7 42 C6.67 42 6.34 42 6 42 C5.97494385 40.96593018 5.9498877 39.93186035 5.92407227 38.86645508 C5.8296657 35.01786613 5.72952709 31.16944371 5.62768555 27.32104492 C5.58446216 25.65767319 5.54277854 23.99426068 5.50268555 22.33081055 C5.44467668 19.93525932 5.38107171 17.53991092 5.31640625 15.14453125 C5.29969376 14.4047554 5.28298126 13.66497955 5.26576233 12.90278625 C5.15978027 9.18137373 5.05373341 5.58607231 4 2 C2.03241727 0.63979849 2.03241727 0.63979849 0 0 Z " fill="#C2DCF1" transform="translate(469,240)"/>
<path d="M0 0 C0.99 0.33 1.98 0.66 3 1 C2.21654285 2.17219543 1.42297164 3.33763668 0.625 4.5 C0.18414062 5.1496875 -0.25671875 5.799375 -0.7109375 6.46875 C-1.13632812 6.9740625 -1.56171875 7.479375 -2 8 C-2.66 8 -3.32 8 -4 8 C-4.268125 8.639375 -4.53625 9.27875 -4.8125 9.9375 C-6 12 -6 12 -9 13 C-9 13.66 -9 14.32 -9 15 C-10.96147874 16.38938077 -12.96166576 17.7260411 -15 19 C-15 18.01 -15 17.02 -15 16 C-14.34 16 -13.68 16 -13 16 C-13 14.35 -13 12.7 -13 11 C-11.68 11.33 -10.36 11.66 -9 12 C-9 10.68 -9 9.36 -9 8 C-7.68 8 -6.36 8 -5 8 C-5.66 6.02 -6.32 4.04 -7 2 C-6.34 1.67 -5.68 1.34 -5 1 C-5 1.66 -5 2.32 -5 3 C-3.02463255 2.65213292 -3.02463255 2.65213292 -1 2 C-0.67 1.34 -0.34 0.68 0 0 Z " fill="#467ABB" transform="translate(452,320)"/>
<path d="M0 0 C0.33 0 0.66 0 1 0 C1.01981934 0.68626465 1.03963867 1.3725293 1.06005859 2.07958984 C1.15510945 5.17845779 1.26486847 8.27663294 1.375 11.375 C1.4059375 12.45523437 1.436875 13.53546875 1.46875 14.6484375 C1.50742187 15.6796875 1.54609375 16.7109375 1.5859375 17.7734375 C1.6173584 18.72653809 1.6487793 19.67963867 1.68115234 20.66162109 C1.78555796 23.18895176 1.78555796 23.18895176 4 25 C3.01 25.66 2.02 26.32 1 27 C0.02234738 28.97273969 0.02234738 28.97273969 -0.625 31.25 C-0.87507813 32.05050781 -1.12515625 32.85101563 -1.3828125 33.67578125 C-2.09089689 36.16293209 -2.09089689 36.16293209 -2.5 39.4375 C-2.7475 40.7059375 -2.7475 40.7059375 -3 42 C-3.99 42.66 -4.98 43.32 -6 44 C-5.53897577 39.85078193 -4.75332826 36.08748962 -3.53125 32.09375 C-1.71748318 25.54509716 -1.22630569 19.07385717 -0.8125 12.3125 C-0.73064453 11.12205078 -0.64878906 9.93160156 -0.56445312 8.70507812 C-0.36638041 5.80389541 -0.17841988 2.90244613 0 0 Z " fill="#3B6FAB" transform="translate(461,256)"/>
<path d="M0 0 C2 1 2 1 3.125 3 C4 6 4 6 4 15 C-2.6 15 -9.2 15 -16 15 C-16 11.7 -16 8.4 -16 5 C-15.67 5 -15.34 5 -15 5 C-15 7.64 -15 10.28 -15 13 C-9.39 13 -3.78 13 2 13 C2 10.36 2 7.72 2 5 C1.34 5 0.68 5 0 5 C0 3.35 0 1.7 0 0 Z " fill="#D1E9F9" transform="translate(421,264)"/>
<path d="M0 0 C3.84762566 3.4201117 6.60634022 7.46774256 9 12 C9 12.66 9 13.32 9 14 C6.36 14.33 3.72 14.66 1 15 C0.54625 14.030625 0.0925 13.06125 -0.375 12.0625 C-1.65786221 8.92920418 -1.65786221 8.92920418 -4 8 C-3.67 7.34 -3.34 6.68 -3 6 C-1.68 6.66 -0.36 7.32 1 8 C1 8.66 1 9.32 1 10 C1.99 9.01 2.98 8.02 4 7 C3.01 7 2.02 7 1 7 C0.67 4.69 0.34 2.38 0 0 Z " fill="#DEECF4" transform="translate(371,314)"/>
<path d="M0 0 C1.46224799 0.42423244 2.91973412 0.86490245 4.375 1.3125 C5.18710937 1.55613281 5.99921875 1.79976563 6.8359375 2.05078125 C9 3 9 3 11 6 C10.01 7.485 10.01 7.485 9 9 C5.45094618 8.39159077 2.19912963 7.68842953 -1 6 C-1.9375 4 -1.9375 4 -2 2 C-1.34 1.34 -0.68 0.68 0 0 Z " fill="#1E66C0" transform="translate(400,336)"/>
<path d="M0 0 C0.33 0 0.66 0 1 0 C1.28525319 3.37866552 1.4562329 6.63256666 1 10 C-1.4375 12.0625 -1.4375 12.0625 -4 13 C-5.79377288 14.79377288 -5.13034701 17.47909062 -5.1328125 19.8984375 C-5.13410156 21.09984375 -5.13539063 22.30125 -5.13671875 23.5390625 C-5.13285156 24.80492187 -5.12898438 26.07078125 -5.125 27.375 C-5.12886719 28.633125 -5.13273437 29.89125 -5.13671875 31.1875 C-5.13542969 32.39148438 -5.13414062 33.59546875 -5.1328125 34.8359375 C-5.13168457 35.94501465 -5.13055664 37.0540918 -5.12939453 38.19677734 C-5.12359796 41.08278534 -5.12359796 41.08278534 -4 44 C-4.99 44 -5.98 44 -7 44 C-7.1237709 39.3736342 -7.21441516 34.74823539 -7.2746582 30.12060547 C-7.29977448 28.54719249 -7.33387472 26.97389588 -7.37719727 25.40087891 C-7.43798399 23.13675228 -7.46623582 20.87416978 -7.48828125 18.609375 C-7.51408768 17.90818542 -7.5398941 17.20699585 -7.56648254 16.48455811 C-7.56864738 12.69903708 -7.27604276 11.28408338 -4.59448242 8.52441406 C-2 7 -2 7 0 7 C0 4.69 0 2.38 0 0 Z " fill="#E4F7FB" transform="translate(397,269)"/>
<path d="M0 0 C0 0.99 0 1.98 0 3 C-1.32064453 3.19916016 -1.32064453 3.19916016 -2.66796875 3.40234375 C-3.82941406 3.57894531 -4.99085938 3.75554687 -6.1875 3.9375 C-7.91033203 4.19853516 -7.91033203 4.19853516 -9.66796875 4.46484375 C-12.46325212 4.91379313 -15.22933586 5.42082162 -18 6 C-18 6.66 -18 7.32 -18 8 C-20.31 8 -22.62 8 -25 8 C-25 8.66 -25 9.32 -25 10 C-25.99 9.67 -26.98 9.34 -28 9 C-25.20436233 6.20436233 -21.83046387 5.27076638 -18.1875 3.9375 C-17.47529297 3.66873047 -16.76308594 3.39996094 -16.02929688 3.12304688 C-10.6255717 1.11851978 -5.81566954 -0.16616199 0 0 Z " fill="#4875B2" transform="translate(313,73)"/>
<path d="M0 0 C0.66 0.66 1.32 1.32 2 2 C1.625 5.625 1.625 5.625 1 9 C0.01 9 -0.98 9 -2 9 C-2.33 9.99 -2.66 10.98 -3 12 C-4.32 12 -5.64 12 -7 12 C-8.25541557 8.23375329 -7.37061958 6.62811066 -6 3 C-5.34 3.33 -4.68 3.66 -4 4 C-2.68 2.68 -1.36 1.36 0 0 Z " fill="#1E65BB" transform="translate(454,311)"/>
<path d="M0 0 C2.20680179 2.20680179 1.40382573 7.88851092 1.51757812 11.00976562 C1.70057859 14.78371861 1.91523356 17.78422667 4 21 C2.68 21 1.36 21 0 21 C-1.65497356 17.69005287 -1.10084335 14.00877 -1.0625 10.375 C-1.05573242 9.17230469 -1.05573242 9.17230469 -1.04882812 7.9453125 C-1.03703168 5.96350994 -1.01909605 3.98174567 -1 2 C-3.97 2 -6.94 2 -10 2 C-6.34346173 -0.43769218 -4.30999899 -0.23944439 0 0 Z " fill="#4B78B0" transform="translate(252,307)"/>
<path d="M0 0 C0.99 0.66 1.98 1.32 3 2 C2.07005883 3.94113934 1.1307547 5.8777951 0.1875 7.8125 C-0.59560547 9.43091797 -0.59560547 9.43091797 -1.39453125 11.08203125 C-2.76110117 13.56579702 -3.87340101 15.1799378 -6 17 C-6.33 15.68 -6.66 14.36 -7 13 C-6.01 13 -5.02 13 -4 13 C-4.13019531 12.39671875 -4.26039063 11.7934375 -4.39453125 11.171875 C-4.81976044 8.70793017 -5.12050672 6.50051454 -5 4 C-2.5625 1.4375 -2.5625 1.4375 0 0 Z " fill="#3873BB" transform="translate(503,255)"/>
<path d="M0 0 C0.33 0 0.66 0 1 0 C1.66 3.3 2.32 6.6 3 10 C9.93 10.495 9.93 10.495 17 11 C17 11.33 17 11.66 17 12 C12.05 12 7.1 12 2 12 C1.67 12.66 1.34 13.32 1 14 C1.66 14.33 2.32 14.66 3 15 C1.35 15.66 -0.3 16.32 -2 17 C-3.25 14.875 -3.25 14.875 -4 12 C-2.70672372 9.97386717 -1.3703055 7.97485205 0 6 C0.33594133 2.74822148 0.33594133 2.74822148 0 0 Z " fill="#3D76BC" transform="translate(429,142)"/>
<path d="M0 0 C1.484375 1.28125 1.484375 1.28125 3 3 C3.26641894 6.72986522 3.1845131 9.44646071 2 13 C2.20914458 16.11155923 2.57727801 19.18818927 2.94140625 22.28515625 C2.96074219 23.18105469 2.98007813 24.07695312 3 25 C2.34 25.66 1.68 26.32 1 27 C-1.10226076 17.670132 -0.95377059 9.43459553 0 0 Z " fill="#4A7EB7" transform="translate(148,221)"/>
<path d="M0 0 C0.53625 0.268125 1.0725 0.53625 1.625 0.8125 C1.295 1.8025 0.965 2.7925 0.625 3.8125 C-1.02704456 4.51461894 -2.69423769 5.18221413 -4.375 5.8125 C-4.705 6.4725 -5.035 7.1325 -5.375 7.8125 C-6.035 7.8125 -6.695 7.8125 -7.375 7.8125 C-7.375 8.8025 -7.375 9.7925 -7.375 10.8125 C-10.42763664 11.79370464 -12.32236336 11.79370464 -15.375 10.8125 C-14.715 10.1525 -14.055 9.4925 -13.375 8.8125 C-12.385 8.8125 -11.395 8.8125 -10.375 8.8125 C-10.16875 8.255625 -9.9625 7.69875 -9.75 7.125 C-7.60826691 3.52299436 -4.50053589 -0.35530546 0 0 Z " fill="#4572B9" transform="translate(270.375,91.1875)"/>
<path d="M0 0 C11.22 0 22.44 0 34 0 C35.1577506 3.47325181 35.06866652 6.36067448 35 10 C33.68 10.33 32.36 10.66 31 11 C31.26041667 8.98177083 31.52083333 6.96354167 31.78125 4.9453125 C32.0372485 2.99501656 32.0372485 2.99501656 32 1 C21.44 1 10.88 1 0 1 C0 0.67 0 0.34 0 0 Z " fill="#EEFCFE" transform="translate(312,151)"/>
<path d="M0 0 C5.65348119 4.60654023 8.84766321 11.92135973 10 19 C9.01 19 8.02 19 7 19 C7 18.01 7 17.02 7 16 C6.34 16 5.68 16 5 16 C4.01 13.03 3.02 10.06 2 7 C1.01 7.495 1.01 7.495 0 8 C0 5.36 0 2.72 0 0 Z " fill="#3970B8" transform="translate(416,117)"/>
<path d="M0 0 C1.32 0 2.64 0 4 0 C5.29676812 4.61073111 4.71109139 8.33840089 4 13 C2.68 13 1.36 13 0 13 C0 8.71 0 4.42 0 0 Z " fill="#E9F8FB" transform="translate(413,292)"/>
<path d="M0 0 C7.75 -0.125 7.75 -0.125 10 1 C11.70702735 1.06996014 13.41668003 1.08440154 15.125 1.0625 C16.03507812 1.05347656 16.94515625 1.04445312 17.8828125 1.03515625 C18.58148438 1.02355469 19.28015625 1.01195312 20 1 C20.33 1.99 20.66 2.98 21 4 C22.98 4 24.96 4 27 4 C26.67 4.66 26.34 5.32 26 6 C7.75214788 3.89533976 7.75214788 3.89533976 1 2 C0.67 1.34 0.34 0.68 0 0 Z " fill="#3971B4" transform="translate(448,235)"/>
<path d="M0 0 C1.11002992 3.33008975 0.68516272 4.65983176 0 8 C0.33 8.66 0.66 9.32 1 10 C0.67 10.66 0.34 11.32 0 12 C-0.99 12.33 -1.98 12.66 -3 13 C-4.01754868 14.8653245 -4.01754868 14.8653245 -4.6875 17.0625 C-4.93886719 17.79597656 -5.19023437 18.52945313 -5.44921875 19.28515625 C-5.63097656 19.85105469 -5.81273437 20.41695312 -6 21 C-6.33 21 -6.66 21 -7 21 C-7.36558896 15.93620403 -6.14310951 12.21532527 -4.0625 7.6875 C-3.78470703 7.05521484 -3.50691406 6.42292969 -3.22070312 5.77148438 C-1.17712355 1.17712355 -1.17712355 1.17712355 0 0 Z " fill="#3D71B5" transform="translate(157,196)"/>
<path d="M0 0 C2.375 0.3125 2.375 0.3125 5 1 C7 4 7 4 7 6 C7.639375 6.2475 8.27875 6.495 8.9375 6.75 C11 8 11 8 11.625 10.0625 C11.74875 10.701875 11.8725 11.34125 12 12 C12.66 12.33 13.32 12.66 14 13 C9.94519369 13 8.15167025 11.45129908 5 9 C5 8.01 5 7.02 5 6 C4.01 5.67 3.02 5.34 2 5 C0.8125 2.4375 0.8125 2.4375 0 0 Z " fill="#4375BA" transform="translate(378,323)"/>
<path d="M0 0 C2.62901914 2.35838482 4.14649342 4.80122977 5.75 7.9375 C6.19859375 8.79214844 6.6471875 9.64679688 7.109375 10.52734375 C8.08377402 13.23258313 8.00579304 14.35672682 7 17 C5 16 5 16 4.0625 13.5 C3.711875 12.675 3.36125 11.85 3 11 C2.01 10.67 1.02 10.34 0 10 C-0.95024979 6.30458414 -0.95024979 3.69541586 0 0 Z " fill="#356FB7" transform="translate(499,188)"/>
<path d="M0 0 C-8.64064304 4.82717488 -17.24782524 8.24775051 -27 10 C-27.99 9.67 -28.98 9.34 -30 9 C-27.08416415 8.01834721 -24.1671912 7.04011699 -21.25 6.0625 C-20.425 5.78470703 -19.6 5.50691406 -18.75 5.22070312 C-17.55117188 4.81948242 -17.55117188 4.81948242 -16.328125 4.41015625 C-15.5949707 4.16402588 -14.86181641 3.91789551 -14.10644531 3.66430664 C-12.08490527 3.02677645 -10.06152574 2.49093646 -8 2 C-8 1.34 -8 0.68 -8 0 C-4.90645403 -0.99435406 -3.09720845 -0.87840996 0 0 Z " fill="#366DAD" transform="translate(406,243)"/>
<path d="M0 0 C1 4 1 4 0 7 C0.39397335 9.63804589 0.39397335 9.63804589 1 12 C-0.32 12 -1.64 12 -3 12 C-3.33 10.68 -3.66 9.36 -4 8 C-4.99 8.99 -5.98 9.98 -7 11 C-7.66 10.67 -8.32 10.34 -9 10 C-6.03 6.7 -3.06 3.4 0 0 Z " fill="#3472BB" transform="translate(446,316)"/>
<path d="M0 0 C2.06429669 3.82093377 3.50277015 7.87200211 5 11.9375 C6.61983857 16.31186604 8.24113747 20.67894831 10 25 C8.68 24.34 7.36 23.68 6 23 C6 22.01 6 21.02 6 20 C5.34 20 4.68 20 4 20 C3.87882812 19.33613281 3.75765625 18.67226563 3.6328125 17.98828125 C2.60670102 12.48955189 2.60670102 12.48955189 0.875 7.1875 C-0.13480892 4.66297771 -0.15396332 2.69435805 0 0 Z " fill="#4376B5" transform="translate(371,288)"/>
<path d="M0 0 C0.33 0 0.66 0 1 0 C1.32878217 10.84981163 1.11367639 20.50987598 -2 31 C-2.33 31 -2.66 31 -3 31 C-3.02694851 29.04174127 -3.04637218 27.08337774 -3.0625 25.125 C-3.07410156 24.03445312 -3.08570313 22.94390625 -3.09765625 21.8203125 C-3 19 -3 19 -2 17 C-1.34 17 -0.68 17 0 17 C0 11.39 0 5.78 0 0 Z " fill="#6D96C6" transform="translate(510,220)"/>
<path d="M0 0 C0.99 0.99 1.98 1.98 3 3 C2.67 3.66 2.34 4.32 2 5 C1.84339117 7.62380313 1.7417092 10.22524852 1.68359375 12.8515625 C1.66281265 13.62559418 1.64203156 14.39962585 1.62062073 15.19711304 C1.55516552 17.67298392 1.49625913 20.14896202 1.4375 22.625 C1.39431093 24.30209448 1.35069652 25.97917807 1.30664062 27.65625 C1.19948829 31.77072308 1.09820955 35.88530414 1 40 C0.67 40 0.34 40 0 40 C0 26.8 0 13.6 0 0 Z " fill="#D8EFFE" transform="translate(370,140)"/>
<path d="M0 0 C0.33 0.66 0.66 1.32 1 2 C1.78375 2.165 2.5675 2.33 3.375 2.5 C6.68245382 4.38997361 6.76031823 5.55060258 7.8125 9.125 C8.22785648 10.74511976 8.6298555 12.36895675 9 14 C5.40768729 10.5103248 1.98132051 7.03355127 -1 3 C-0.67 2.01 -0.34 1.02 0 0 Z " fill="#5384BD" transform="translate(160,270)"/>
<path d="M0 0 C2.475 0.495 2.475 0.495 5 1 C4.51104248 1.80195801 4.51104248 1.80195801 4.01220703 2.62011719 C2.74916283 5.58976381 2.77308869 7.85504683 2.8046875 11.078125 C2.81113281 12.23828125 2.81757813 13.3984375 2.82421875 14.59375 C2.84097656 15.8003125 2.85773438 17.006875 2.875 18.25 C2.88853516 20.08304687 2.88853516 20.08304687 2.90234375 21.953125 C2.92590487 24.96894782 2.95880294 27.98437492 3 31 C2.67 31 2.34 31 2 31 C1.34 20.77 0.68 10.54 0 0 Z " fill="#2F68AA" transform="translate(475,241)"/>
<path d="M0 0 C0.0825 0.61875 0.165 1.2375 0.25 1.875 C0.81258459 4.18437567 0.81258459 4.18437567 3.0625 5.25 C3.701875 5.4975 4.34125 5.745 5 6 C4.01 7.485 4.01 7.485 3 9 C2.54398739 11.50896686 2.54398739 11.50896686 2.375 14.1875 C2.30023438 15.08855469 2.22546875 15.98960937 2.1484375 16.91796875 C2.09945313 17.60503906 2.05046875 18.29210937 2 19 C1.67 19 1.34 19 1 19 C0.67 15.04 0.34 11.08 0 7 C-0.99 7.495 -0.99 7.495 -2 8 C-2.66 7.67 -3.32 7.34 -4 7 C-3.67 5.68 -3.34 4.36 -3 3 C-2.34 3 -1.68 3 -1 3 C-0.67 2.01 -0.34 1.02 0 0 Z " fill="#4A7EBD" transform="translate(403,260)"/>
<path d="M0 0 C1.875 0.5625 1.875 0.5625 4 2 C5.70060271 6.42156704 6.23002629 10.28446112 6 15 C3.62317631 12.86285601 2.40068998 11.06221946 1.3125 8.0625 C1.06113281 7.39347656 0.80976563 6.72445313 0.55078125 6.03515625 C0 4 0 4 0 0 Z " fill="#3F73B3" transform="translate(152,254)"/>
<path d="M0 0 C0.66 1.65 1.32 3.3 2 5 C-1.38391693 6.06351675 -2.5804634 6.21442982 -5.8125 4.5625 C-6.534375 4.046875 -7.25625 3.53125 -8 3 C-5.53387212 -0.1151089 -3.89156016 -0.31553191 0 0 Z " fill="#1F68C3" transform="translate(439,241)"/>
<path d="M0 0 C2.64 1.32 5.28 2.64 8 4 C4 6 4 6 2 6 C2 6.66 2 7.32 2 8 C2.99 8.33 3.98 8.66 5 9 C4.67 9.66 4.34 10.32 4 11 C1.03 9.02 -1.94 7.04 -5 5 C-3 4 -3 4 0 4 C0 2.68 0 1.36 0 0 Z " fill="#E1EFF9" transform="translate(421,222)"/>
<path d="M0 0 C0 2.97 0 5.94 0 9 C-1.32 8.67 -2.64 8.34 -4 8 C-4 7.34 -4 6.68 -4 6 C-4.66 6 -5.32 6 -6 6 C-6 5.34 -6 4.68 -6 4 C-1.41176471 0 -1.41176471 0 0 0 Z M-6 8 C-5.34 8 -4.68 8 -4 8 C-4 8.99 -4 9.98 -4 11 C-4.66 11 -5.32 11 -6 11 C-6 10.01 -6 9.02 -6 8 Z " fill="#1E65BF" transform="translate(443,323)"/>
<path d="M0 0 C0.19412181 1.47831221 0.38012131 2.95769316 0.5625 4.4375 C0.66691406 5.26121094 0.77132813 6.08492188 0.87890625 6.93359375 C0.91886719 7.61550781 0.95882813 8.29742187 1 9 C0.67 9.33 0.34 9.66 0 10 C-0.07148199 11.35243917 -0.08399454 12.70834367 -0.0625 14.0625 C-0.041875 15.361875 -0.02125 16.66125 0 18 C-0.66 17.67 -1.32 17.34 -2 17 C-2.6875 13.5 -2.6875 13.5 -3 10 C-2.67 9.67 -2.34 9.34 -2 9 C-1.95919217 7.00041636 -1.95745644 4.99954746 -2 3 C-4.97 2.505 -4.97 2.505 -8 2 C-8 1.67 -8 1.34 -8 1 C-5.23735711 0.40267181 -2.83967231 0 0 0 Z " fill="#2F63A9" transform="translate(420,287)"/>
<path d="M0 0 C2 3.75 2 3.75 2 6 C2.99 6 3.98 6 5 6 C4.814375 7.010625 4.62875 8.02125 4.4375 9.0625 C4.00231753 12.97914227 4.29146979 16.14244663 5 20 C0.30684666 14.41964781 -0.37511265 7.12714029 0 0 Z " fill="#316AB0" transform="translate(363,284)"/>
<path d="M0 0 C-3.70142216 3.54719623 -7.06090186 3.68134851 -12 4 C-12.66 3.67 -13.32 3.34 -14 3 C-14.33 4.65 -14.66 6.3 -15 8 C-15.6875 6.1875 -15.6875 6.1875 -16 4 C-14.51862705 1.77794057 -13.35296068 1.1109305 -10.8125 0.3125 C-7.17976413 -0.09113732 -3.65505375 -0.06195006 0 0 Z " fill="#CCE1F2" transform="translate(370,239)"/>
<path d="M0 0 C3.29148243 1.13499394 3.9959869 1.99283376 5.75 5.125 C6.1625 6.07375 6.575 7.0225 7 8 C5.25 8.75 5.25 8.75 3 9 C0.6875 7.375 0.6875 7.375 -1 5 C-0.75 2.25 -0.75 2.25 0 0 Z " fill="#1D6BC5" transform="translate(373,307)"/>
<path d="M0 0 C0.66 0.33 1.32 0.66 2 1 C1.296875 2.953125 1.296875 2.953125 0 5 C-2.171875 5.609375 -2.171875 5.609375 -4.75 5.75 C-5.63945312 5.80542969 -6.52890625 5.86085937 -7.4453125 5.91796875 C-10.30038538 6.0096454 -13.14397584 6.07515853 -16 6 C-13.16363401 4.10908934 -11.79086771 3.6097423 -8.5625 3 C-6.05104224 2.52405538 -4.11542108 2.0601108 -1.83984375 0.875 C-1.23269531 0.58625 -0.62554687 0.2975 0 0 Z " fill="#4179B8" transform="translate(391,239)"/>
<path d="M0 0 C0.99 0.66 1.98 1.32 3 2 C0.58967749 3.20216334 -1.82683479 4.38674978 -4.25 5.5625 C-5.27287109 6.07586914 -5.27287109 6.07586914 -6.31640625 6.59960938 C-10.02168909 8.38030356 -12.07871478 9.3058334 -16 8 C-10.66666667 5.33333333 -5.33333333 2.66666667 0 0 Z " fill="#D5EBF9" transform="translate(397,234)"/>
<path d="M0 0 C1.33333333 0 2.66666667 0 4 0 C4 2.31 4 4.62 4 7 C-0.95 6.67 -5.9 6.34 -11 6 C-11 5.67 -11 5.34 -11 5 C-5.06 4.505 -5.06 4.505 1 4 C0.34 3.34 -0.32 2.68 -1 2 C-0.67 1.34 -0.34 0.68 0 0 Z " fill="#326CB7" transform="translate(354,296)"/>
<path d="M0 0 C2.4375 0.75 2.4375 0.75 5 2 C5.9375 3.9375 5.9375 3.9375 6 6 C5.01 7.485 5.01 7.485 4 9 C3.34 8.01 2.68 7.02 2 6 C2.33 5.67 2.66 5.34 3 5 C2.01 4.34 1.02 3.68 0 3 C0 2.01 0 1.02 0 0 Z M0 7 C0.99 7.33 1.98 7.66 3 8 C3 9.32 3 10.64 3 12 C2.01 11.67 1.02 11.34 0 11 C-0.33 10.01 -0.66 9.02 -1 8 C-0.67 7.67 -0.34 7.34 0 7 Z " fill="#2967B3" transform="translate(391,326)"/>
<path d="M0 0 C3.53599998 0.07072 6.1041863 0.19163015 8.80078125 2.625 C10.27675028 4.37220916 11.67266996 6.13784833 13 8 C10.69 8 8.38 8 6 8 C5.9071875 6.824375 5.9071875 6.824375 5.8125 5.625 C5.544375 4.75875 5.27625 3.8925 5 3 C2.52363988 1.62533375 2.52363988 1.62533375 0 1 C0 0.67 0 0.34 0 0 Z " fill="#3C73B8" transform="translate(396,99)"/>
<path d="M0 0 C1.77226453 0.28284018 3.542788 0.57660498 5.3125 0.875 C6.29863281 1.03742188 7.28476562 1.19984375 8.30078125 1.3671875 C11 2 11 2 14 4 C12.06257659 4.02703381 10.12504521 4.04641125 8.1875 4.0625 C7.10855469 4.07410156 6.02960938 4.08570312 4.91796875 4.09765625 C2 4 2 4 -1 3 C-0.67 2.01 -0.34 1.02 0 0 Z " fill="#4777B6" transform="translate(350,73)"/>
<path d="M0 0 C0.66 0 1.32 0 2 0 C2 3.3 2 6.6 2 10 C4.31 10 6.62 10 9 10 C8.34 10.66 7.68 11.32 7 12 C3.375 11.625 3.375 11.625 0 11 C-0.33 9.35 -0.66 7.7 -1 6 C-0.34 6 0.32 6 1 6 C0.67 4.02 0.34 2.04 0 0 Z " fill="#2F63AD" transform="translate(410,296)"/>
<path d="M0 0 C1.22213016 3.66639049 0.63855512 5.35293431 -0.3125 9.0625 C-0.57675781 10.12597656 -0.84101563 11.18945312 -1.11328125 12.28515625 C-2 15 -2 15 -4 17 C-4.22577402 11.5814234 -3.46670113 7.22512279 -2 2 C-1.34 2 -0.68 2 0 2 C0 1.34 0 0.68 0 0 Z " fill="#4A78B1" transform="translate(467,286)"/>
<path d="M0 0 C3.85098598 0.26558524 6.16695501 2.56043348 9 5 C7.7625 4.79375 6.525 4.5875 5.25 4.375 C1.88090165 3.93892876 -0.12841921 3.96596361 -3 6 C-2.42655063 3.13275314 -2.1385485 2.1385485 0 0 Z " fill="#316CAF" transform="translate(413,226)"/>
<path d="M0 0 C6.20970773 -0.33266291 10.28264895 0.54970669 16 3 C12.90341291 4.0321957 11.20396973 4.03606873 8 3.75 C6.700625 3.64945313 6.700625 3.64945313 5.375 3.546875 C2.68618973 2.92774106 1.72102687 2.10599341 0 0 Z " fill="#567EB5" transform="translate(446,154)"/>
<path d="M0 0 C4.10958767 1.45044271 7.43258745 3.51110752 11 6 C9 7 9 7 6.8359375 6.44140625 C6.02382813 6.15136719 5.21171875 5.86132812 4.375 5.5625 C3.55773437 5.27503906 2.74046875 4.98757813 1.8984375 4.69140625 C1.27195312 4.46324219 0.64546875 4.23507812 0 4 C0 2.68 0 1.36 0 0 Z " fill="#3069B0" transform="translate(398,332)"/>
<path d="M0 0 C0 0.66 0 1.32 0 2 C0.66 2 1.32 2 2 2 C1.67 2.66 1.34 3.32 1 4 C0.278125 3.484375 -0.44375 2.96875 -1.1875 2.4375 C-3.86417417 0.77562365 -3.86417417 0.77562365 -6.625 1.125 C-9.14693451 2.05413377 -10.21677817 3.04694751 -12 5 C-12.66 5 -13.32 5 -14 5 C-14 4.34 -14 3.68 -14 3 C-13.34 3 -12.68 3 -12 3 C-12 2.01 -12 1.02 -12 0 C-8.04395608 -1.21724428 -3.79359325 -1.89679663 0 0 Z " fill="#3B70B1" transform="translate(420,237)"/>
<path d="M0 0 C1.18851562 0.00902344 2.37703125 0.01804688 3.6015625 0.02734375 C4.51679688 0.03894531 5.43203125 0.05054688 6.375 0.0625 C6.375 0.3925 6.375 0.7225 6.375 1.0625 C5.09302734 1.15337891 5.09302734 1.15337891 3.78515625 1.24609375 C2.12806641 1.37177734 2.12806641 1.37177734 0.4375 1.5 C-0.66464844 1.58121094 -1.76679688 1.66242188 -2.90234375 1.74609375 C-5.53609903 1.76668084 -5.53609903 1.76668084 -6.625 3.0625 C-6.91886153 6.78474599 -6.77309171 7.84036243 -4.625 11.0625 C-5.615 11.0625 -6.605 11.0625 -7.625 11.0625 C-9.23225635 7.84798731 -8.68248185 4.62637464 -8.625 1.0625 C-5.74084117 -0.37957941 -3.20778472 -0.03144887 0 0 Z " fill="#E0F1FA" transform="translate(280.625,150.9375)"/>
<path d="M0 0 C2.20914 3.31371 2.22481553 4.3446021 2.125 8.1875 C2.10695313 9.08855469 2.08890625 9.98960937 2.0703125 10.91796875 C2.03550781 11.94857422 2.03550781 11.94857422 2 13 C2.99 13.33 3.98 13.66 5 14 C2.6875 14.625 2.6875 14.625 0 15 C-0.99 14.34 -1.98 13.68 -3 13 C-2.67 12.01 -2.34 11.02 -2 10 C-1.34 10 -0.68 10 0 10 C0 6.7 0 3.4 0 0 Z " fill="#5288C6" transform="translate(430,266)"/>
<path d="M0 0 C6.05303839 0.3783149 10.18382123 2.29717165 15 6 C15 6.33 15 6.66 15 7 C11.53058454 6.54177532 8.32604951 6.10868317 5 5 C5 4.34 5 3.68 5 3 C2.525 2.01 2.525 2.01 0 1 C0 0.67 0 0.34 0 0 Z " fill="#658ABB" transform="translate(462,158)"/>
<path d="M0 0 C1.9375 0.125 1.9375 0.125 4 1 C5.25 3.5625 5.25 3.5625 6 6 C5.34 6 4.68 6 4 6 C4 5.34 4 4.68 4 4 C3.01 4 2.02 4 1 4 C0.67 4.99 0.34 5.98 0 7 C-0.66 6.34 -1.32 5.68 -2 5 C-1.46428571 1.46428571 -1.46428571 1.46428571 0 0 Z " fill="#3270BC" transform="translate(385,320)"/>
<path d="M0 0 C0.99 0.66 1.98 1.32 3 2 C1.68 4.97 0.36 7.94 -1 11 C-1.33 11 -1.66 11 -2 11 C-2 7.7 -2 4.4 -2 1 C-1.34 0.67 -0.68 0.34 0 0 Z " fill="#4F7FBC" transform="translate(503,255)"/>
<path d="M0 0 C4.62 2.31 9.24 4.62 14 7 C12.68 7.33 11.36 7.66 10 8 C9.34 7.34 8.68 6.68 8 6 C6.515 5.8453125 6.515 5.8453125 5 5.6875 C4.01 5.460625 3.02 5.23375 2 5 C1.34 3.35 0.68 1.7 0 0 Z " fill="#D1E7F6" transform="translate(418,239)"/>
<path d="M0 0 C0.99 0.33 1.98 0.66 3 1 C1.6905332 2.33631236 0.37734515 3.66897925 -0.9375 5 C-1.66839844 5.7425 -2.39929688 6.485 -3.15234375 7.25 C-5 9 -5 9 -6 9 C-6 7.35 -6 5.7 -6 4 C-4.68 4 -3.36 4 -2 4 C-1.34 2.68 -0.68 1.36 0 0 Z " fill="#658DBF" transform="translate(488,280)"/>
<path d="M0 0 C-0.99 0.66 -1.98 1.32 -3 2 C-3 2.66 -3 3.32 -3 4 C-5 5.625 -5 5.625 -7 7 C-7.66 6.67 -8.32 6.34 -9 6 C-8.67 5.34 -8.34 4.68 -8 4 C-8.66 3.67 -9.32 3.34 -10 3 C-9.01 2.67 -8.02 2.34 -7 2 C-6.67 1.34 -6.34 0.68 -6 0 C-3 -1 -3 -1 0 0 Z " fill="#5789C7" transform="translate(193,165)"/>
<path d="M0 0 C2.05078125 0.03255208 4.1015625 0.06510417 6.15234375 0.09765625 C6.15234375 0.42765625 6.15234375 0.75765625 6.15234375 1.09765625 C4.17234375 1.42765625 2.19234375 1.75765625 0.15234375 2.09765625 C0.15234375 3.41765625 0.15234375 4.73765625 0.15234375 6.09765625 C1.47234375 6.75765625 2.79234375 7.41765625 4.15234375 8.09765625 C1.77734375 8.22265625 1.77734375 8.22265625 -0.84765625 8.09765625 C-2.84765625 6.09765625 -2.84765625 6.09765625 -3.03515625 3.53515625 C-2.77450145 0.14664384 -2.77450145 0.14664384 0 0 Z " fill="#386AA7" transform="translate(275.84765625,152.90234375)"/>
<path d="M0 0 C3.36720387 1.39332574 4.9859524 2.9789286 7 6 C6.236875 5.814375 5.47375 5.62875 4.6875 5.4375 C1.91032625 4.77180827 1.91032625 4.77180827 -1 6 C-1.042721 4.33388095 -1.04063832 2.66617115 -1 1 C-0.67 0.67 -0.34 0.34 0 0 Z " fill="#EBF5FC" transform="translate(372,144)"/>
<path d="M0 0 C3.85025879 0.60355408 6.86101159 1.76772603 10.3125 3.5625 C11.19550781 4.01753906 12.07851563 4.47257812 12.98828125 4.94140625 C13.65214844 5.29074219 14.31601562 5.64007813 15 6 C13 7 13 7 10.1875 6.1875 C7.44021658 5.16400226 4.71082841 4.11622346 2 3 C2 2.34 2 1.68 2 1 C1.34 0.67 0.68 0.34 0 0 Z " fill="#688AB6" transform="translate(365,77)"/>
<path d="M0 0 C0.66 0.33 1.32 0.66 2 1 C2.66 1 3.32 1 4 1 C4.99 1.33 5.98 1.66 7 2 C6.34 3.32 5.68 4.64 5 6 C3.35 5.67 1.7 5.34 0 5 C-0.5625 3.0625 -0.5625 3.0625 -1 1 C-0.67 0.67 -0.34 0.34 0 0 Z " fill="#1E64BB" transform="translate(378,318)"/>
<path d="M0 0 C0.6875 2.0625 0.6875 2.0625 1 4 C-1.31 3.67 -3.62 3.34 -6 3 C-6.33 2.01 -6.66 1.02 -7 0 C-3.98968256 -0.93423645 -3.13349732 -1.04449911 0 0 Z " fill="#2062B4" transform="translate(175,281)"/>
<path d="M0 0 C-0.66 0 -1.32 0 -2 0 C-2 0.66 -2 1.32 -2 2 C-4.64 2.99 -7.28 3.98 -10 5 C-10.66 4.34 -11.32 3.68 -12 3 C-10.5682384 2.30062798 -9.12932968 1.61587282 -7.6875 0.9375 C-6.48673828 0.36322266 -6.48673828 0.36322266 -5.26171875 -0.22265625 C-3 -1 -3 -1 0 0 Z " fill="#5A84BA" transform="translate(205,160)"/>
<path d="M0 0 C0.99 0 1.98 0 3 0 C3 0.66 3 1.32 3 2 C2.01 2 1.02 2 0 2 C-0.0825 2.78375 -0.165 3.5675 -0.25 4.375 C-1 7 -1 7 -3.0625 8.3125 C-4.0215625 8.6528125 -4.0215625 8.6528125 -5 9 C-3.76067171 5.56801397 -2.49698489 2.69674368 0 0 Z " fill="#4170AF" transform="translate(246,114)"/>
<path d="M0 0 C0.33 0.66 0.66 1.32 1 2 C-0.125 5.0625 -0.125 5.0625 -2 8 C-4.6875 8.875 -4.6875 8.875 -7 9 C-6.34 7.68 -5.68 6.36 -5 5 C-4.34 5 -3.68 5 -3 5 C-2.690625 4.360625 -2.38125 3.72125 -2.0625 3.0625 C-1 1 -1 1 0 0 Z " fill="#497DB6" transform="translate(254,104)"/>
<path d="M0 0 C0.66 0.33 1.32 0.66 2 1 C0.35 2.98 -1.3 4.96 -3 7 C-4.65 6.67 -6.3 6.34 -8 6 C-6.32169152 2.64338305 -3.29210653 1.67493139 0 0 Z " fill="#507EB6" transform="translate(282,82)"/>
<path d="M0 0 C2.00130916 2.54712074 3.85727656 4.9527375 5 8 C4.625 10.25 4.625 10.25 4 12 C1.20406217 10.60203108 1.04826223 8.86525011 0 6 C-0.33 5.34 -0.66 4.68 -1 4 C-0.5625 1.875 -0.5625 1.875 0 0 Z " fill="#658BBF" transform="translate(502,193)"/>
<path d="M0 0 C-3.82491487 2.69993991 -6.32818984 3.41527201 -11 3 C-11.66 2.67 -12.32 2.34 -13 2 C-13 1.34 -13 0.68 -13 0 C-12.01 0 -11.02 0 -10 0 C-10 0.66 -10 1.32 -10 2 C-8.68 2 -7.36 2 -6 2 C-6 1.34 -6 0.68 -6 0 C-3.50907189 -1.24546405 -2.58919267 -0.7767578 0 0 Z " fill="#DBEEF9" transform="translate(423,337)"/>
<path d="M0 0 C0.99 0.33 1.98 0.66 3 1 C3 2.65 3 4.3 3 6 C5.31 6 7.62 6 10 6 C10 6.33 10 6.66 10 7 C3.9453125 7.1953125 3.9453125 7.1953125 2 7 C0 5 0 5 -0.125 2.375 C-0.08375 1.59125 -0.0425 0.8075 0 0 Z " fill="#3465A8" transform="translate(273,211)"/>
<path d="M0 0 C0.33 0 0.66 0 1 0 C0.40546697 9.59453303 0.40546697 9.59453303 -3 13 C-3.38281159 7.76824163 -2.21854707 4.62197306 0 0 Z " fill="#6087B9" transform="translate(153,204)"/>
<path d="M0 0 C1.32 0 2.64 0 4 0 C4.33 1.65 4.66 3.3 5 5 C3.35 5 1.7 5 0 5 C0 3.35 0 1.7 0 0 Z " fill="#F6F9F4" transform="translate(413,292)"/>
<path d="M0 0 C1.4606285 2.64738916 2 3.89448334 2 7 C-0.475 6.01 -0.475 6.01 -3 5 C-3 5.66 -3 6.32 -3 7 C-3.66 6.67 -4.32 6.34 -5 6 C-3.625 4 -3.625 4 -2 2 C-1.34 2 -0.68 2 0 2 C0 1.34 0 0.68 0 0 Z " fill="#6A92C9" transform="translate(173,175)"/>
<path d="M0 0 C2 1 2 1 2.6328125 2.84765625 C2.79523438 3.57855469 2.95765625 4.30945313 3.125 5.0625 C3.29257812 5.79597656 3.46015625 6.52945313 3.6328125 7.28515625 C3.75398438 7.85105469 3.87515625 8.41695312 4 9 C3.01 9 2.02 9 1 9 C0.67 6.03 0.34 3.06 0 0 Z " fill="#4675B6" transform="translate(422,127)"/>
<path d="M0 0 C0.598125 0.20625 1.19625 0.4125 1.8125 0.625 C1.4825 1.615 1.1525 2.605 0.8125 3.625 C-1.1675 3.955 -3.1475 4.285 -5.1875 4.625 C-5.1875 3.635 -5.1875 2.645 -5.1875 1.625 C-2.1875 -0.375 -2.1875 -0.375 0 0 Z " fill="#4278B5" transform="translate(270.1875,91.375)"/>
<path d="M0 0 C0.33 0 0.66 0 1 0 C1 3.3 1 6.6 1 10 C-0.98 10 -2.96 10 -5 10 C-3.625 8.5 -3.625 8.5 -2 7 C-1.34 7 -0.68 7 0 7 C0 4.69 0 2.38 0 0 Z " fill="#DCEEFB" transform="translate(397,269)"/>
<path d="M0 0 C1.45792884 -0.05399736 2.91642712 -0.09279177 4.375 -0.125 C5.18710937 -0.14820313 5.99921875 -0.17140625 6.8359375 -0.1953125 C9 0 9 0 11 2 C6.99799622 3.60080151 3.95443764 2.29279692 0 1 C0 0.67 0 0.34 0 0 Z " fill="#487CB6" transform="translate(445,251)"/>
<path d="M0 0 C0.99 0.33 1.98 0.66 3 1 C3 3.31 3 5.62 3 8 C1.68 8.33 0.36 8.66 -1 9 C-0.67 6.03 -0.34 3.06 0 0 Z " fill="#CEE4F7" transform="translate(344,153)"/>
<path d="M0 0 C2.475 0.495 2.475 0.495 5 1 C5.12375 1.639375 5.2475 2.27875 5.375 2.9375 C5.684375 3.9584375 5.684375 3.9584375 6 5 C6.66 5.33 7.32 5.66 8 6 C5 6 5 6 3.61328125 4.6875 C2.40885417 3.125 1.20442708 1.5625 0 0 Z " fill="#356DB0" transform="translate(384,154)"/>
<path d="M0 0 C0.33 0 0.66 0 1 0 C1.125 7.625 1.125 7.625 0 11 C-0.66 11 -1.32 11 -2 11 C-1 3.57142857 -1 3.57142857 0 0 Z " fill="#D8EAF7" transform="translate(468,285)"/>
<path d="M0 0 C2.475 0.495 2.475 0.495 5 1 C5.33 1.99 5.66 2.98 6 4 C4.02 4 2.04 4 0 4 C0 2.68 0 1.36 0 0 Z " fill="#326AB6" transform="translate(432,280)"/>
<path d="M0 0 C4.12751449 0.60698743 7.3321148 2.03810791 11 4 C10.34 4.66 9.68 5.32 9 6 C6.03 4.35 3.06 2.7 0 1 C0 0.67 0 0.34 0 0 Z " fill="#4175B2" transform="translate(427,243)"/>
<path d="M0 0 C1.65 0 3.3 0 5 0 C1.80331012 2.6486859 -1.39486597 4.93992341 -5 7 C-5 6.34 -5 5.68 -5 5 C-4.34 5 -3.68 5 -3 5 C-3 4.34 -3 3.68 -3 3 C-2.34 3 -1.68 3 -1 3 C-0.67 2.01 -0.34 1.02 0 0 Z " fill="#C6DFF3" transform="translate(411,225)"/>
<path d="M0 0 C0.99 0.99 1.98 1.98 3 3 C2.67 3.66 2.34 4.32 2 5 C1.77532169 6.53668865 1.59203195 8.07968054 1.4375 9.625 C1.35371094 10.44226563 1.26992188 11.25953125 1.18359375 12.1015625 C1.12300781 12.72804687 1.06242187 13.35453125 1 14 C0.67 14 0.34 14 0 14 C0 9.38 0 4.76 0 0 Z " fill="#CDE9F9" transform="translate(370,140)"/>
<path d="M0 0 C-2.35277269 2.72426311 -4.62496331 3.8141763 -8 5 C-8.33 4.34 -8.66 3.68 -9 3 C-6.38997624 -0.48003168 -4.1689578 -0.27793052 0 0 Z " fill="#557EB6" transform="translate(437,339)"/>
<path d="M0 0 C0.66 0.33 1.32 0.66 2 1 C2 1.99 2 2.98 2 4 C0.125 5.0625 0.125 5.0625 -2 6 C-2.66 5.67 -3.32 5.34 -4 5 C-3 2 -3 2 0 0 Z " fill="#3871B5" transform="translate(424,335)"/>
<path d="M0 0 C0 2.64 0 5.28 0 8 C-0.33 8 -0.66 8 -1 8 C-1.33 6.35 -1.66 4.7 -2 3 C-4.97 2.505 -4.97 2.505 -8 2 C-8 1.67 -8 1.34 -8 1 C-5.23735711 0.40267181 -2.83967231 0 0 0 Z " fill="#4D7FBA" transform="translate(420,287)"/>
<path d="M0 0 C-2.90092502 1.93395001 -3.89674737 2.30131941 -7.1875 2.625 C-8.445625 2.74875 -9.70375 2.8725 -11 3 C-8.21756596 -1.17365106 -4.53441502 -0.22300402 0 0 Z " fill="#E1F0FC" transform="translate(378,243)"/>
<path d="M0 0 C0.99 0.33 1.98 0.66 3 1 C2.67 2.98 2.34 4.96 2 7 C1.01 6.67 0.02 6.34 -1 6 C-1.042721 4.33388095 -1.04063832 2.66617115 -1 1 C-0.67 0.67 -0.34 0.34 0 0 Z " fill="#3B69A7" transform="translate(274,238)"/>
<path d="M0 0 C0.598125 0.763125 1.19625 1.52625 1.8125 2.3125 C3.46959332 4.3483575 5.10297674 6.1978279 7 8 C5.02 7.34 3.04 6.68 1 6 C0.67 4.02 0.34 2.04 0 0 Z " fill="#638CBF" transform="translate(409,107)"/>
<path d="M0 0 C0.66 1.32 1.32 2.64 2 4 C0.68 4.99 -0.64 5.98 -2 7 C-2.66 6.34 -3.32 5.68 -4 5 C-1.125 1.125 -1.125 1.125 0 0 Z " fill="#266ABE" transform="translate(420,303)"/>
<path d="M0 0 C0.33 0 0.66 0 1 0 C1.36923077 4.55384615 1.36923077 4.55384615 -0.5 6.8125 C-0.995 7.204375 -1.49 7.59625 -2 8 C-2.66 7.67 -3.32 7.34 -4 7 C-2.68 4.69 -1.36 2.38 0 0 Z " fill="#3E75B5" transform="translate(454,302)"/>
<path d="M0 0 C2.64 0 5.28 0 8 0 C7.67 0.99 7.34 1.98 7 3 C4.0625 2.625 4.0625 2.625 1 2 C0.67 1.34 0.34 0.68 0 0 Z " fill="#3A6FAE" transform="translate(193,300)"/>
<path d="M0 0 C0.33 0.66 0.66 1.32 1 2 C2.65 1.67 4.3 1.34 6 1 C4.37660195 2.70884005 2.70680947 4.37446717 1 6 C0.34 6 -0.32 6 -1 6 C-0.67 4.02 -0.34 2.04 0 0 Z " fill="#8399BF" transform="translate(474,289)"/>
<path d="M0 0 C0 3 0 3 -2 5.1875 C-2.66 5.785625 -3.32 6.38375 -4 7 C-4 5.02 -4 3.04 -4 1 C-2.68 0.67 -1.36 0.34 0 0 Z " fill="#4E7BB7" transform="translate(495,273)"/>
<path d="M0 0 C0.99 0.66 1.98 1.32 3 2 C-0.13498292 3.85776765 -2.37471432 4.20140476 -6 4 C-5 2 -5 2 -2.625 0.75 C-1.75875 0.5025 -0.8925 0.255 0 0 Z " fill="#E4F5FC" transform="translate(397,234)"/>
<path d="M0 0 C0.94875 0.04125 1.8975 0.0825 2.875 0.125 C2.875 0.785 2.875 1.445 2.875 2.125 C-0.17763664 3.10620464 -2.07236336 3.10620464 -5.125 2.125 C-3.125 0.125 -3.125 0.125 0 0 Z " fill="#5785CA" transform="translate(260.125,99.875)"/>
</svg>
